<?xml version="1.0" standalone="no"?>
<!DOCTYPE svg PUBLIC "-//W3C//DTD SVG 20010904//EN"
 "http://www.w3.org/TR/2001/REC-SVG-20010904/DTD/svg10.dtd">
<svg version="1.0" xmlns="http://www.w3.org/2000/svg"
 width="1024.000000pt" height="1024.000000pt" viewBox="0 0 1024.000000 1024.000000"
 preserveAspectRatio="xMidYMid meet">

<g transform="translate(0.000000,1024.000000) scale(0.100000,-0.100000)"
fill="#000000" stroke="none">
<path d="M0 8390 l0 -1850 47 0 c69 0 127 -32 152 -84 12 -23 21 -48 21 -56 0
-8 9 -33 21 -56 58 -121 -56 -277 -192 -261 l-49 6 0 -1846 0 -1846 58 59 c32
32 68 73 80 90 34 49 83 199 89 274 5 61 2 79 -36 189 -49 142 -51 153 -50
336 1 194 0 209 -16 305 -28 169 -23 298 15 370 54 105 144 161 271 168 85 5
137 -12 197 -63 65 -55 80 -111 107 -415 2 -19 8 -78 15 -130 22 -178 3 -363
-53 -510 -37 -98 -25 -140 38 -140 60 0 266 124 280 169 5 17 1 63 -10 101 -9
30 -13 78 -20 195 -4 78 -17 164 -37 245 -26 111 -29 139 -26 245 4 133 11
155 81 238 48 58 105 92 204 123 69 21 84 22 171 14 124 -12 177 -37 211 -103
22 -43 23 -51 12 -88 -15 -48 -65 -105 -155 -174 -36 -27 -65 -58 -66 -67 0
-21 46 -146 61 -164 8 -10 40 -11 133 -7 147 7 182 -2 231 -60 29 -33 35 -49
35 -85 0 -63 -23 -103 -112 -197 -43 -45 -78 -88 -78 -95 0 -7 21 -49 46 -92
50 -85 53 -87 130 -63 27 8 54 15 59 14 18 -1 -38 -20 -130 -46 -83 -23 -106
-37 -111 -69 -9 -54 -102 -149 -231 -235 -56 -38 -105 -69 -108 -69 -4 0 -25
-13 -48 -29 -44 -30 -308 -177 -441 -245 -74 -38 -80 -44 -92 -85 -14 -49 -44
-84 -124 -145 -67 -52 -280 -187 -452 -287 l-127 -74 -1 -897 0 -898 4670 0
4671 0 13 31 c15 37 10 68 -13 77 -9 3 -37 21 -63 39 -33 23 -59 33 -85 33
-61 0 -81 10 -93 44 -6 17 -31 47 -54 66 -24 19 -78 82 -122 140 -82 110 -111
142 -185 201 -59 48 -96 104 -116 175 -27 97 -82 154 -157 160 -19 1 -44 17
-75 49 -43 44 -44 47 -19 41 15 -3 48 -20 75 -36 26 -16 86 -39 133 -51 47
-12 105 -34 130 -50 47 -32 116 -55 199 -68 28 -4 68 -20 88 -34 45 -31 133
-63 200 -73 64 -9 173 -77 250 -156 34 -35 79 -79 101 -99 22 -20 51 -61 66
-90 14 -30 42 -67 61 -82 33 -26 35 -32 29 -65 -4 -20 -8 -45 -10 -54 -3 -18
19 -47 37 -49 5 -1 14 -3 19 -4 6 -1 17 -3 25 -4 21 -2 84 -60 111 -103 l24
-38 165 0 165 0 0 1285 0 1285 -32 20 c-18 11 -87 47 -153 79 -740 362 -897
438 -960 463 -76 30 -385 187 -432 219 -23 16 -48 38 -56 49 -17 24 -84 53
-107 47 -14 -4 -9 15 26 94 24 55 44 101 44 102 0 2 -34 30 -75 62 -41 32 -73
60 -71 63 2 2 35 -6 73 -17 37 -11 156 -43 263 -71 107 -28 197 -55 198 -60 2
-6 8 -7 13 -4 6 3 18 -1 27 -9 9 -8 40 -22 67 -32 28 -9 64 -25 80 -35 17 -9
86 -47 155 -83 360 -187 478 -250 679 -365 165 -93 240 -132 256 -132 3 0 5
204 5 454 l0 453 -77 23 c-70 21 -75 24 -58 36 22 17 80 34 113 34 l22 0 0
2821 0 2821 -50 -42 c-27 -23 -52 -46 -55 -50 -5 -8 -84 -78 -435 -380 -159
-137 -472 -413 -500 -440 -9 -8 -42 -37 -75 -65 -33 -27 -105 -91 -160 -140
-147 -133 -175 -153 -175 -122 1 16 67 87 106 111 16 11 56 45 89 76 33 31 76
69 95 84 19 15 69 59 110 96 41 37 117 105 168 150 50 45 92 86 92 91 0 5 6 9
14 9 7 0 20 8 27 18 13 15 12 16 -3 3 -12 -9 -18 -10 -18 -2 0 10 14 15 33 12
10 -2 118 86 336 274 96 82 190 163 210 180 20 16 71 60 114 98 l77 69 0 304
0 304 -595 0 -595 0 0 -31 c0 -24 -11 -41 -52 -80 -29 -27 -58 -49 -64 -49 -7
0 -22 -21 -34 -47 -12 -27 -26 -50 -30 -53 -4 -3 -15 -20 -24 -37 -19 -38 -29
-40 -58 -13 -12 11 -31 20 -41 20 -18 0 -19 5 -14 51 4 28 11 57 17 64 6 7 15
35 19 62 5 26 14 63 19 81 l11 32 -509 0 c-422 0 -509 -2 -513 -14 -3 -7 -1
-18 4 -23 16 -16 24 -71 23 -159 -1 -65 -6 -91 -26 -130 -14 -27 -25 -53 -26
-57 0 -4 -9 -27 -20 -50 -11 -23 -27 -60 -37 -82 -9 -22 -22 -44 -29 -50 -18
-16 -63 -107 -71 -142 -3 -18 -11 -33 -16 -33 -5 0 -9 -9 -9 -20 0 -11 -11
-37 -24 -58 -13 -20 -29 -54 -36 -74 -6 -21 -16 -38 -21 -38 -5 0 -9 -6 -9
-13 0 -32 -69 -63 -84 -38 -3 4 -17 6 -31 4 -48 -10 -94 6 -110 37 -9 17 -13
30 -9 30 4 0 1 6 -5 14 -6 8 -33 17 -59 21 -60 9 -102 35 -137 84 -43 63 -54
107 -55 219 0 117 12 158 56 186 54 34 84 69 84 96 0 27 -2 27 -79 34 -43 3
-93 11 -111 18 -31 10 -124 1 -200 -20 -32 -9 -60 -65 -59 -117 1 -58 11 -77
50 -90 81 -27 69 -119 -23 -178 -23 -14 -28 -25 -28 -58 0 -36 3 -41 30 -50
17 -6 30 -15 30 -19 0 -5 3 -15 6 -23 3 -9 -12 -32 -40 -61 -25 -25 -46 -52
-46 -60 0 -8 -20 -34 -44 -58 -24 -24 -51 -59 -61 -78 -10 -19 -31 -50 -46
-68 -34 -38 -34 -36 -15 -257 9 -93 20 -262 25 -374 6 -112 13 -206 16 -209 3
-3 22 10 43 29 l37 34 -35 -38 c-40 -43 -121 -87 -162 -87 -68 0 -148 56 -170
119 -10 31 -13 159 -5 260 2 20 -7 27 -73 51 -41 16 -82 29 -91 29 -10 1 -32
-22 -50 -51 -119 -186 -229 -247 -331 -185 -71 42 -97 94 -118 232 -18 121 -9
110 -106 124 -47 7 -88 11 -89 9 -2 -2 -24 -47 -49 -101 -72 -150 -134 -207
-227 -207 -54 0 -122 33 -154 74 -13 17 -42 78 -64 136 -23 57 -44 107 -49
111 -4 4 -45 5 -90 2 -97 -7 -89 2 -122 -144 -31 -140 -72 -196 -163 -221 -96
-25 -163 20 -259 173 -35 57 -67 98 -74 95 -6 -2 -45 -14 -85 -26 -41 -12 -77
-27 -81 -34 -4 -6 -8 -64 -8 -130 0 -103 -3 -123 -22 -158 -27 -48 -71 -76
-131 -84 -67 -9 -117 20 -222 126 -49 50 -93 89 -99 86 -6 -2 -28 -12 -49 -21
-22 -9 -36 -12 -33 -7 3 5 8 76 11 158 3 82 8 183 11 225 3 41 7 115 10 165 2
49 6 125 9 169 2 46 -3 132 -13 200 -13 93 -16 186 -15 410 1 160 -1 296 -6
303 -8 14 -30 17 -103 14 l-47 -2 -7 -46 c-7 -50 -26 -67 -84 -79 -39 -7 -116
-85 -92 -92 22 -8 13 -42 -18 -65 -16 -12 -30 -29 -30 -38 0 -8 -6 -24 -14
-35 -16 -24 -28 -110 -30 -217 -1 -63 -5 -81 -21 -98 -18 -17 -24 -18 -38 -8
-24 18 -45 105 -51 221 -3 54 -8 103 -12 108 -3 5 -2 9 3 9 4 0 8 35 8 77 0
52 4 78 13 81 6 2 10 8 6 13 -3 5 -1 9 5 9 10 0 7 129 -6 220 l-8 55 -247 3
c-137 1 -248 -1 -248 -6 0 -5 12 -42 26 -83 21 -60 25 -86 21 -141 -2 -37 -9
-73 -14 -80 -6 -7 -13 -27 -16 -45 -4 -18 -16 -42 -27 -53 -20 -20 -20 -20
-20 0 0 11 -7 20 -15 20 -26 0 -14 -80 15 -100 4 -3 17 -39 29 -80 12 -41 27
-86 33 -100 42 -100 49 -189 19 -248 -10 -20 -28 -67 -40 -103 -21 -65 -21
-68 -5 -140 9 -41 22 -83 28 -94 18 -29 36 -102 38 -155 2 -58 -21 -158 -44
-190 -14 -20 -19 -44 -19 -105 0 -69 3 -86 31 -139 27 -51 33 -75 37 -149 7
-106 -11 -198 -44 -237 -30 -36 -31 -110 -2 -165 21 -41 28 -62 34 -103 2 -13
9 -30 17 -39 12 -15 11 -15 -12 -3 -14 7 -41 23 -61 36 l-36 22 -79 -79 -78
-78 57 -83 c91 -133 103 -178 68 -253 -22 -47 -64 -89 -104 -104 -30 -12 -109
-14 -143 -5 l-21 6 3 746 c1 411 5 756 7 767 3 11 8 119 11 240 10 341 18 568
22 589 2 11 6 125 9 255 9 335 11 379 24 395 6 7 9 20 5 29 -3 8 -1 18 5 21 6
4 8 13 4 21 -4 13 -144 15 -1079 15 l-1074 0 0 -1850z m9511 1542 c13 -173 9
-209 -28 -252 -25 -30 -80 -60 -112 -60 -29 -1 -62 -38 -77 -90 -18 -61 -44
-91 -74 -83 -37 10 -43 38 -37 183 4 116 8 141 27 173 25 42 55 63 65 47 4 -6
12 -32 18 -58 7 -26 17 -46 22 -44 6 1 10 8 10 15 0 6 3 15 7 18 5 3 8 18 9
35 3 77 32 177 63 217 33 43 75 72 88 59 4 -4 12 -76 19 -160z m-827 -116 c-8
-96 -39 -181 -76 -209 -46 -34 -83 -70 -95 -91 -8 -14 -17 -17 -36 -12 -26 6
-26 8 -22 79 2 39 6 81 8 92 13 52 41 123 61 155 13 19 31 48 40 63 26 43 55
49 93 19 l33 -24 -6 -72z m-5444 37 c7 -21 19 -42 26 -46 17 -10 18 -33 3 -43
-25 -15 -82 -22 -110 -12 -34 12 -35 17 -9 51 17 22 18 26 4 31 -8 3 -12 11
-8 17 4 7 3 9 -4 5 -12 -7 -26 10 -18 22 3 5 27 9 55 11 49 2 49 2 61 -36z
m5824 -290 c24 -77 34 -281 17 -326 -14 -37 -66 -85 -118 -107 -31 -14 -43
-26 -47 -47 -10 -43 -64 -105 -86 -98 -43 14 -100 -46 -100 -104 0 -32 -34
-92 -71 -129 -18 -18 -36 -32 -40 -32 -4 0 -30 -18 -58 -40 -72 -57 -103 -42
-112 55 -3 25 13 117 33 188 19 72 26 84 88 149 56 57 71 68 85 60 44 -24 106
24 118 93 15 82 47 146 84 166 12 7 25 20 28 30 3 10 15 21 25 24 10 3 22 15
26 27 10 31 84 108 105 108 10 0 20 -8 23 -17z m-6174 -207 c0 -13 3 -26 7
-30 4 -3 8 -12 10 -19 1 -7 12 -39 23 -72 41 -117 41 -242 1 -233 -33 8 -53
-33 -38 -74 10 -26 18 -52 18 -58 1 -3 5 -10 9 -15 5 -6 11 -22 13 -35 3 -14
12 -64 21 -111 19 -100 15 -225 -7 -260 -16 -27 -17 -22 12 -179 14 -74 29
-125 43 -144 25 -35 10 -27 -59 32 l-52 44 -33 -25 c-62 -45 -59 -49 -53 80 2
65 11 145 18 178 15 65 13 250 -3 298 -12 37 -5 186 9 200 6 6 11 19 11 30 0
10 5 15 10 12 6 -4 10 5 10 22 0 15 0 35 0 43 0 8 -4 61 -9 117 -8 100 -8 134
4 200 7 37 35 36 35 -1z m4916 -224 c21 -13 34 -86 34 -192 0 -127 -11 -155
-107 -278 -38 -48 -72 -94 -78 -104 -5 -9 -26 -41 -46 -70 -39 -58 -59 -107
-59 -147 0 -20 -2 -23 -10 -11 -10 15 -11 12 -14 -22 -1 -17 -47 -55 -82 -68
-48 -19 -60 8 -63 137 -2 100 0 116 30 198 17 50 36 94 40 99 5 6 9 21 9 34 0
13 4 20 10 17 6 -3 10 3 10 15 0 12 4 19 9 16 5 -4 12 7 16 24 4 16 18 46 32
67 14 21 41 66 58 100 36 67 65 112 65 99 0 -5 17 8 37 28 21 20 41 36 46 36
5 0 15 7 23 15 17 17 24 18 40 7z m-6992 -47 c23 -34 21 -72 -4 -80 -27 -8
-50 16 -50 52 0 27 15 53 31 53 4 0 14 -11 23 -25z m7106 -284 c-11 -21 -30
-37 -30 -25 0 8 30 44 37 44 2 0 -1 -9 -7 -19z m-51 -133 c-10 -38 -58 -98
-78 -98 -6 0 10 31 36 69 27 38 49 68 50 67 1 -1 -2 -18 -8 -38z m304 -36
c-19 -25 -63 -43 -63 -25 1 10 73 62 79 56 3 -2 -4 -16 -16 -31z m-138 18 c3
-5 2 -10 -4 -10 -5 0 -13 5 -16 10 -3 6 -2 10 4 10 5 0 13 -4 16 -10z m422
-183 c-18 -18 -37 -41 -43 -52 -16 -28 -30 -10 -16 20 10 22 65 65 84 65 3 0
-8 -15 -25 -33z m103 -5 c0 -14 -23 -32 -40 -32 -22 0 -57 -38 -70 -77 -14
-39 8 -89 45 -103 36 -14 42 -32 8 -24 -46 10 -83 57 -83 107 0 54 17 86 59
114 33 22 81 31 81 15z m111 -35 c63 -48 61 -148 -3 -189 -36 -23 -89 -38
-104 -30 -11 6 -4 18 28 51 43 43 43 43 46 17 4 -35 15 -33 34 8 18 37 11 75
-25 129 -19 29 -6 37 24 14z m-1127 -282 c-16 -26 -43 -72 -61 -103 -34 -60
-43 -61 -15 -1 20 43 95 157 101 153 2 -2 -9 -24 -25 -49z m376 -174 c0 -32
-12 -81 -20 -81 -16 0 -20 34 -8 66 13 37 28 45 28 15z m-316 -56 c-10 -8 -24
-15 -31 -15 -7 0 -18 -10 -24 -22 -11 -22 -11 -22 7 -7 10 9 27 19 37 23 15 5
14 0 -7 -25 -14 -17 -26 -35 -26 -40 0 -5 -5 -8 -12 -6 -6 1 -15 -9 -19 -23
-6 -23 -7 -23 -8 -3 -1 12 -4 29 -7 37 -8 20 65 96 92 96 17 0 16 -1 -2 -15z
m402 -131 c47 -38 55 -54 27 -54 -22 1 -57 28 -72 57 -23 45 -11 44 45 -3z
m-253 -4 c3 -11 1 -18 -4 -14 -5 3 -9 12 -9 20 0 20 7 17 13 -6z m-190 -16
c-4 -12 -8 -13 -14 -3 -9 15 -2 32 11 24 5 -3 6 -13 3 -21z m197 -19 c0 -1 -9
-10 -19 -19 -19 -17 -19 -17 -15 1 3 11 12 20 20 20 8 0 14 -1 14 -2z m-49
-18 c-6 -8 -7 -18 -3 -22 4 -5 1 -5 -6 -1 -10 6 -10 11 -1 22 6 8 14 14 16 14
3 0 0 -6 -6 -13z m-36 -27 c8 -13 -5 -13 -25 0 -13 8 -13 10 2 10 9 0 20 -4
23 -10z m-2345 -30 c314 -33 583 -111 875 -255 177 -87 303 -168 316 -202 17
-45 11 -185 -11 -248 -16 -46 -17 -60 -8 -67 19 -12 -40 -10 -87 3 -22 6 -82
38 -133 72 -120 79 -133 103 -133 249 0 57 -3 108 -7 115 -7 10 -182 93 -230
108 -20 6 -36 -5 -110 -77 -104 -101 -162 -133 -230 -125 -78 9 -265 46 -295
58 -33 14 -102 117 -143 213 l-29 69 -144 -6 c-100 -4 -146 -10 -152 -18 -4
-7 -22 -53 -39 -102 -18 -48 -46 -107 -64 -130 -29 -38 -41 -45 -146 -80 -63
-21 -133 -41 -155 -44 -53 -7 -114 22 -222 104 -46 35 -90 63 -98 63 -28 0
-214 -99 -225 -120 -7 -14 -8 -42 -2 -88 5 -37 8 -69 6 -71 -7 -8 -46 95 -67
177 l-22 83 25 19 c29 23 265 129 378 170 151 55 358 103 542 125 128 16 480
18 610 5z m2137 -12 c-3 -8 -6 -5 -6 6 -1 11 2 17 5 13 3 -3 4 -12 1 -19z
m-2410 -102 c-4 -9 4 -22 19 -33 25 -18 25 -19 -63 -19 -154 -1 -184 -4 -178
-14 3 -6 -1 -7 -9 -4 -11 4 -14 14 -10 33 10 39 11 40 60 39 25 0 47 1 49 3 2
2 34 5 71 7 56 3 66 1 61 -12z m2683 -50 c0 -2 -17 -16 -37 -32 -21 -15 -32
-20 -24 -11 7 9 10 17 5 17 -5 0 2 7 16 14 26 15 40 19 40 12z m-2841 -33 c6
-10 11 -12 11 -5 0 20 35 14 62 -11 23 -21 27 -22 37 -8 6 9 9 10 6 4 -4 -8 0
-13 9 -13 28 0 2 -44 -32 -54 -24 -7 -38 -5 -58 9 -15 9 -23 12 -20 6 8 -12
-3 -14 -46 -11 -16 1 -28 -3 -28 -9 0 -8 -7 -7 -20 1 -17 11 -22 10 -30 -2 -7
-11 -8 -9 -6 10 6 60 17 80 42 78 13 -1 27 -11 30 -21 3 -10 11 -16 17 -14 17
5 22 38 5 34 -7 -2 -10 -2 -5 0 4 3 5 9 1 14 -3 5 -1 9 5 9 5 0 15 -8 20 -17z
m92 -10 c13 -17 13 -17 -6 -3 -11 8 -22 16 -24 17 -2 2 0 3 6 3 6 0 17 -8 24
-17z m141 -31 l20 -32 -23 -9 c-18 -6 -31 -3 -51 12 -15 11 -25 24 -22 29 3 4
-2 11 -11 14 -14 6 -12 9 7 19 31 16 55 6 80 -33z m858 -49 c3 -4 -4 -3 -15 1
-43 17 -95 19 -112 5 -15 -13 -15 -11 1 13 l18 27 51 -20 c29 -12 54 -23 57
-26z m-5359 14 c74 -39 108 -127 78 -204 -16 -42 -58 -83 -114 -109 -116 -55
-236 -7 -266 107 -40 151 155 283 302 206z m7009 19 c0 -2 -8 -10 -17 -17 -16
-13 -17 -12 -4 4 13 16 21 21 21 13z m-2560 -26 c0 -5 -2 -10 -4 -10 -3 0 -8
5 -11 10 -3 6 -1 10 4 10 6 0 11 -4 11 -10z m-204 -23 c8 3 14 0 14 -7 0 -6 5
-8 12 -4 7 5 9 2 6 -8 -4 -8 2 -22 13 -31 25 -22 24 -33 -3 -41 -31 -8 -93 -8
-102 1 -13 14 -46 10 -47 -6 0 -10 -2 -12 -6 -3 -2 6 -16 12 -29 12 -29 0 -30
7 -4 38 14 17 25 21 44 16 21 -5 25 -3 20 10 -5 13 0 16 25 16 18 0 31 5 32
13 0 9 2 9 5 0 3 -7 12 -9 20 -6z m145 -8 c11 -6 17 -15 12 -22 -4 -7 0 -6 10
2 10 8 20 11 24 7 3 -3 1 -6 -5 -6 -24 0 -11 -15 14 -17 19 -1 23 2 15 10 -19
19 -12 28 17 25 15 -2 28 -9 28 -15 1 -7 2 -18 3 -25 0 -6 7 -3 15 7 8 11 12
24 8 30 -3 5 4 2 16 -8 11 -11 18 -25 15 -33 -3 -8 1 -14 10 -14 9 0 18 -3 20
-7 3 -5 -20 -8 -50 -7 -30 0 -58 5 -61 11 -11 16 -45 24 -62 13 -12 -8 -12
-10 3 -16 19 -7 13 -24 -9 -24 -9 0 -12 5 -8 12 4 7 3 8 -4 4 -21 -13 -77 5
-88 27 -5 12 -16 21 -24 19 -11 -3 -11 -1 0 13 9 11 24 15 41 13 16 -3 26 -1
23 4 -7 11 14 10 37 -3z m2543 -27 c-23 -20 -104 -92 -180 -159 -185 -163
-288 -255 -351 -314 -57 -54 -83 -67 -37 -18 63 68 545 497 579 517 35 20 31
12 -11 -26z m-3410 -49 c-2 -7 4 -13 12 -13 9 0 29 -9 45 -21 16 -11 57 -32
91 -46 74 -30 90 -28 257 24 138 43 176 49 196 33 8 -6 24 -9 37 -5 18 5 20 4
8 -4 -8 -6 -10 -11 -5 -12 6 0 18 -2 28 -4 9 -2 17 0 17 5 0 12 39 20 46 9 3
-5 31 -7 62 -4 65 7 135 -2 126 -16 -3 -5 3 -9 13 -10 16 0 16 -1 -2 -9 l-20
-9 20 0 c45 -2 -11 -21 -62 -21 -28 0 -55 -5 -59 -12 -5 -8 2 -10 22 -6 16 3
40 2 53 -1 21 -6 19 -7 -18 -17 -22 -6 -39 -8 -37 -5 2 3 -12 7 -32 8 -26 1
-32 -1 -22 -7 13 -8 12 -10 -2 -10 -27 0 -51 12 -38 20 7 5 6 11 -6 21 -16 12
-17 12 -9 -1 7 -13 6 -13 -7 -2 -13 10 -17 10 -22 -3 -3 -8 -9 -14 -13 -13 -4
0 -19 -3 -33 -9 -14 -6 -43 -13 -65 -16 -58 -8 -74 -12 -81 -20 -11 -11 14 -8
86 9 60 14 151 30 105 18 -11 -3 -29 -9 -40 -14 -11 -5 -47 -16 -80 -24 -33
-8 -85 -21 -115 -30 -30 -9 -62 -16 -70 -16 -26 0 11 19 40 21 17 1 20 3 7 6
-9 2 -15 9 -12 14 4 5 -1 9 -10 9 -9 0 -14 -4 -10 -10 15 -24 -112 -55 -144
-35 -9 5 -12 4 -8 -2 8 -12 -81 -17 -97 -5 -6 5 -20 12 -30 16 -16 5 -17 4 -6
-9 7 -8 16 -12 21 -9 5 3 9 1 9 -4 0 -9 -94 -5 -120 6 -29 11 -48 9 -43 -5 3
-8 0 -11 -9 -8 -20 8 -188 11 -188 4 0 -3 -6 -6 -13 -6 -8 0 -14 14 -15 37 -2
20 -6 59 -11 87 -8 51 -8 51 16 40 17 -8 27 -7 40 4 32 25 64 40 73 34 6 -4
10 -1 10 4 0 6 3 10 8 10 4 -1 30 -1 57 0 34 1 45 4 36 10 -8 5 -21 7 -30 4
-12 -3 -11 0 3 11 19 15 19 16 -7 16 -15 0 -27 -4 -27 -9 0 -4 -19 -11 -42
-14 -70 -10 -83 -14 -80 -26 1 -7 -3 -11 -10 -10 -26 3 -39 -1 -33 -11 3 -6
-1 -7 -9 -4 -9 3 -16 15 -16 25 0 14 26 32 98 68 l97 49 37 -32 c20 -17 35
-37 32 -43z m1756 52 c39 -29 32 -34 -8 -6 -15 10 -34 21 -42 24 -13 5 -13 6
1 6 8 1 30 -10 49 -24z m3439 7 c130 -50 146 -217 29 -302 -40 -30 -47 -32
-107 -27 -58 4 -66 8 -107 48 -54 53 -79 113 -69 166 9 50 40 100 73 118 36
19 127 18 181 -3z m-3549 -17 c-11 -13 -10 -18 6 -30 18 -13 17 -14 -13 -15
-17 0 -35 -5 -38 -10 -4 -6 -10 -8 -15 -5 -5 3 8 21 28 40 39 37 53 45 32 20z
m90 0 c20 -24 6 -28 -15 -5 -10 11 -13 20 -8 20 6 0 16 -7 23 -15z m51 -41
c10 -12 8 -13 -15 -5 -14 6 -26 7 -26 2 0 -4 -13 -6 -30 -3 -45 6 -36 18 15
19 27 1 49 -5 56 -13z m-1001 -24 c-8 -5 -18 -6 -24 -3 -5 4 -1 10 10 13 24 9
34 2 14 -10z m80 4 c0 -2 -13 -4 -30 -4 -16 0 -30 4 -30 8 0 5 14 7 30 4 17
-2 30 -6 30 -8z m2560 12 c0 -2 -8 -10 -17 -17 -16 -13 -17 -12 -4 4 13 16 21
21 21 13z m-2392 -36 c25 -24 26 -26 10 -36 -6 -4 -8 -3 -5 3 12 20 -18 34
-47 23 -18 -6 -25 -6 -21 0 3 6 14 10 23 11 14 0 13 2 -3 9 -20 8 -20 9 1 9
11 1 30 -8 42 -19z m157 10 c-2 -3 18 -6 43 -6 69 -3 137 -23 123 -37 -8 -8
-14 -8 -22 0 -6 6 -18 9 -27 6 -10 -4 -13 -2 -8 5 4 7 2 12 -3 12 -6 0 -11 -4
-11 -10 0 -6 -9 -6 -24 0 -13 5 -27 6 -32 2 -4 -4 -4 -1 1 7 6 11 3 13 -14 8
-12 -3 -37 1 -54 9 l-32 14 32 -2 c17 -1 30 -5 28 -8z m386 -1 c14 -7 24 -7
33 0 9 8 18 7 32 -4 10 -8 15 -15 10 -15 -5 0 -3 -7 4 -15 10 -12 10 -15 0
-15 -8 0 -11 -2 -8 -5 3 -3 13 -3 22 1 15 6 15 7 -1 20 -10 7 -13 13 -8 13 6
0 18 -6 27 -13 16 -12 16 -15 2 -32 -9 -10 -13 -12 -9 -4 4 9 0 8 -8 -3 -13
-16 -19 -17 -39 -6 -13 7 -26 13 -30 14 -15 0 -9 19 9 27 15 7 14 8 -4 4 -13
-2 -23 -1 -23 3 0 10 -59 1 -66 -10 -3 -5 1 -9 8 -9 7 0 19 -9 26 -20 15 -24
6 -25 -43 -4 -28 11 -35 12 -29 2 5 -10 4 -11 -7 0 -7 6 -23 12 -35 12 -13 0
-25 4 -29 10 -3 5 -12 7 -20 3 -8 -3 -15 -1 -15 4 0 5 23 10 52 12 28 1 63 8
78 16 17 9 31 10 41 4 23 -14 36 -10 15 6 -23 17 -14 20 15 4z m190 -21 c12
-13 19 -17 15 -10 -10 16 4 15 28 -3 13 -10 15 -15 6 -15 -9 0 -7 -5 6 -15 17
-13 15 -13 -21 -2 -41 11 -57 25 -49 39 3 4 -1 5 -9 2 -8 -3 -18 0 -23 7 -4 8
-3 10 4 5 7 -4 12 -2 12 3 0 16 7 13 31 -11z m1595 -7 c-3 -5 -34 -32 -68 -61
l-63 -52 65 61 c64 60 77 70 66 52z m-2340 -21 c0 -21 -20 -27 -31 -10 -3 6
-1 10 5 10 6 0 8 5 5 10 -3 6 0 10 7 10 8 0 14 -9 14 -20z m217 -14 c41 -14
47 -15 53 -5 4 7 10 6 19 -1 7 -6 28 -12 47 -14 18 -1 43 -8 55 -14 26 -15 53
-15 53 -2 0 5 6 7 13 4 8 -3 27 -6 43 -8 16 -2 34 -4 39 -5 6 -1 3 -6 -5 -11
-10 -6 -11 -10 -2 -10 23 0 27 2 24 12 -1 5 2 7 7 4 5 -4 8 -15 6 -26 -2 -11
1 -19 7 -17 6 1 12 -3 15 -10 3 -8 -3 -11 -17 -8 -11 2 -18 0 -15 -4 11 -19
-27 -19 -81 -1 -66 23 -95 25 -45 4 18 -8 31 -17 29 -19 -5 -6 -120 35 -132
46 -15 13 -28 11 -21 -3 4 -7 0 -5 -8 5 -15 19 -32 24 -21 6 3 -6 -9 -3 -27 6
-32 15 -33 15 -14 -1 20 -16 20 -16 -4 -9 -14 4 -68 11 -120 15 l-96 7 83 2
c97 1 105 20 9 23 -60 2 -61 2 -12 5 27 3 68 0 90 -6 22 -6 65 -13 95 -15 30
-3 93 -18 140 -34 92 -31 131 -32 84 -1 -17 11 -37 16 -51 13 -13 -4 -30 0
-40 7 -9 8 -18 13 -20 11 -2 -2 -27 2 -56 7 -28 6 -63 13 -77 16 -35 7 -130
18 -162 19 -14 1 -24 4 -22 8 2 4 -8 9 -23 11 -16 3 10 3 57 2 47 -2 93 -6
103 -9z m338 -3 c13 -16 12 -17 -3 -4 -10 7 -18 15 -18 17 0 8 8 3 21 -13z
m-514 -29 c-3 -3 -12 -4 -19 -1 -8 3 -5 6 6 6 11 1 17 -2 13 -5z m576 -26 c12
-7 25 -17 29 -23 5 -7 8 -6 8 1 0 5 -5 15 -12 22 -9 9 -7 12 9 12 11 0 27 -7
34 -16 11 -14 10 -18 -6 -30 -10 -8 -14 -14 -8 -14 6 0 19 -3 29 -7 13 -5 15
-3 9 7 -6 9 -4 11 4 5 18 -10 0 -25 -29 -25 -47 0 -56 3 -58 24 0 12 -11 29
-23 39 -25 20 -18 22 14 5z m-756 -14 c-16 -9 -27 -17 -25 -18 1 -2 32 0 68 5
36 4 69 4 74 -1 4 -4 2 -8 -5 -7 -8 0 -39 -1 -69 -2 -44 -2 -50 -5 -30 -11 23
-7 22 -8 -10 -8 -19 0 -51 -2 -70 -6 -30 -5 -37 -2 -46 19 -10 21 -9 25 6 30
10 3 37 5 59 4 22 -2 44 0 47 4 4 4 12 7 18 7 6 -1 -2 -8 -17 -16z m958 -14
c3 -6 -1 -7 -10 -4 -11 5 -14 2 -9 -10 4 -10 13 -15 20 -12 8 3 14 1 14 -4 0
-15 -26 -12 -40 5 -6 8 -9 19 -5 25 3 5 1 10 -4 10 -6 0 -11 5 -11 10 0 12 35
-4 45 -20z m-1090 -10 c7 -17 4 -25 -10 -26 -5 0 -26 -4 -45 -9 -19 -5 -44 -9
-55 -9 -11 -1 -24 -4 -30 -7 -5 -4 -30 -10 -55 -14 -128 -20 -341 -91 -500
-167 -46 -22 -101 -41 -121 -43 -46 -5 -92 7 -97 26 -3 11 -2 12 6 0 6 -8 12
-9 16 -3 8 13 -11 25 -42 27 -21 1 -22 0 -6 -12 32 -23 1 -34 -112 -38 -85 -3
-104 -1 -89 8 11 6 23 12 27 12 12 0 78 66 78 77 0 7 -17 -4 -37 -23 -67 -61
-111 -79 -200 -79 -49 0 -84 5 -92 13 -11 10 -13 10 -7 0 10 -18 2 -16 -37 6
-24 13 -38 16 -48 9 -11 -8 -10 -9 3 -4 10 3 20 0 24 -6 5 -7 -2 -9 -22 -5
-15 3 -39 1 -53 -5 l-26 -9 34 -16 c54 -27 78 -83 35 -83 -8 0 -13 -4 -9 -9 3
-5 2 -12 -2 -14 -5 -3 -25 13 -47 36 -21 22 -31 37 -22 34 14 -6 15 -3 5 14
-8 16 -7 25 7 40 13 15 14 19 3 20 -8 0 -24 2 -37 3 -13 2 -26 -2 -29 -7 -3
-6 -1 -7 5 -3 6 3 14 1 18 -6 4 -7 3 -10 -1 -5 -5 4 -19 -3 -33 -15 -13 -13
-27 -22 -30 -20 -4 1 -7 -4 -7 -10 0 -7 -10 -14 -23 -14 -12 -1 -21 2 -20 6 4
10 176 170 183 170 4 0 4 -4 1 -9 -3 -5 7 -14 23 -21 16 -6 32 -18 35 -26 3
-8 14 -14 25 -14 11 0 41 -9 68 -21 58 -25 139 -22 199 9 51 27 132 106 140
137 3 14 13 25 23 25 9 0 12 -3 6 -8 -17 -11 -17 -59 0 -59 9 0 11 4 6 11 -6
7 -4 18 5 30 7 10 11 23 7 29 -4 6 -1 7 7 2 7 -4 15 -2 20 4 5 9 16 8 44 -6
30 -14 39 -15 45 -4 11 18 120 9 132 -11 7 -10 9 -9 9 4 0 15 9 18 55 17 30
-1 53 -4 51 -8 -2 -3 3 -13 12 -21 14 -13 15 -12 9 3 -8 21 3 27 61 33 34 3
43 2 32 -5 -12 -9 -11 -11 6 -11 29 0 84 20 84 31 0 5 5 9 11 9 5 0 7 -4 4
-10 -8 -13 -14 -14 111 21 98 28 200 46 246 45 10 0 20 -7 23 -16z m505 -1
c70 -10 159 -35 280 -75 41 -14 80 -26 87 -27 7 0 10 -4 7 -9 -3 -4 1 -9 8
-10 7 0 18 -2 23 -3 6 -2 14 -3 18 -4 5 0 5 -5 2 -11 -4 -6 -16 -5 -33 4 -40
21 -145 57 -150 51 -2 -2 11 -11 29 -19 22 -10 25 -14 9 -10 -50 13 -70 24
-70 39 0 8 -5 15 -11 15 -5 0 -7 -4 -4 -10 7 -11 -8 -14 -19 -3 -4 4 -30 8
-59 9 -29 1 -96 9 -149 18 -54 9 -118 16 -142 16 -49 0 -75 19 -29 21 27 2 27
2 3 6 -14 3 -29 9 -35 14 -11 11 134 4 235 -12z m255 11 c3 -6 -1 -7 -9 -4
-18 7 -21 14 -7 14 6 0 13 -4 16 -10z m1705 -3 c0 -2 -15 -16 -32 -33 l-33
-29 29 33 c28 30 36 37 36 29z m-3970 -112 c36 -29 72 -60 80 -70 13 -15 9
-15 -27 4 -55 27 -66 27 -105 -7 -62 -52 -69 -57 -63 -40 7 18 -30 86 -58 109
-20 16 -19 17 23 48 49 36 50 36 150 -44z m1073 48 c-7 -2 -19 -2 -25 0 -7 3
-2 5 12 5 14 0 19 -2 13 -5z m1429 -27 c10 0 20 -6 22 -13 6 -15 -3 -16 -24
-3 -8 5 -17 6 -20 1 -3 -4 -13 1 -23 12 -19 19 -18 19 5 11 12 -4 31 -8 40 -8z
m163 -56 c3 -6 -1 -7 -9 -4 -18 7 -21 14 -7 14 6 0 13 -4 16 -10z m1115 -23
c0 -2 -12 -14 -27 -28 l-28 -24 24 28 c23 25 31 32 31 24z m-585 -47 c-3 -5
-12 -10 -18 -10 -7 0 -6 4 3 10 19 12 23 12 15 0z m2019 -49 c41 -26 76 -88
76 -136 0 -56 -43 -123 -93 -146 -75 -34 -138 -19 -195 45 -37 42 -46 72 -39
126 15 115 148 174 251 111z m-1549 -13 c-22 -18 -61 -51 -86 -73 -25 -22 -12
-7 30 33 42 39 80 72 86 72 5 0 -8 -15 -30 -32z m-5399 -18 c54 -51 70 -130
39 -190 -22 -42 -48 -52 -127 -48 l-69 3 -30 -72 c-27 -63 -33 -71 -52 -66
-12 3 -35 6 -50 8 -68 7 -106 19 -162 48 -33 18 -62 34 -65 37 -3 3 -34 20
-70 39 -98 51 -106 73 -27 71 94 -3 95 -3 107 34 14 43 75 100 125 116 23 8
60 10 95 7 47 -5 62 -3 81 12 36 28 49 31 116 28 50 -2 68 -8 89 -27z m1961
-16 c16 2 34 5 39 8 16 9 177 7 195 -3 11 -6 20 -6 24 1 3 5 1 10 -6 10 -7 0
-10 3 -6 6 3 4 24 -1 47 -10 46 -18 62 -20 40 -5 -12 8 -9 9 13 5 15 -4 33 -3
40 1 15 9 90 11 80 2 -5 -4 -44 -29 -89 -57 -79 -49 -95 -52 -107 -22 -4 10
-6 8 -6 -7 -1 -12 4 -23 11 -25 7 -3 -10 -19 -38 -38 -27 -18 -108 -91 -180
-162 -79 -78 -130 -122 -129 -111 0 10 5 24 9 32 7 11 10 11 17 0 7 -11 9 -10
9 3 0 9 8 19 18 22 29 10 42 39 24 56 -14 13 -15 12 -9 -2 4 -12 2 -15 -9 -11
-17 6 -18 19 -4 28 7 4 7 11 2 18 -23 30 -21 45 8 49 16 2 27 1 24 -4 -3 -4 2
-8 11 -8 11 0 15 -5 11 -15 -4 -11 2 -15 27 -15 23 0 28 3 17 9 -8 6 -19 7
-25 3 -5 -3 -4 1 3 10 8 10 23 15 37 12 13 -2 26 0 29 5 9 14 -51 25 -122 22
-37 -1 -61 2 -58 8 3 5 0 8 -7 7 -6 0 -14 4 -15 9 -2 6 -8 16 -14 23 -6 6 -7
12 -2 12 5 0 2 5 -6 11 -12 9 -11 10 7 6 13 -3 21 0 20 6 -1 6 8 13 21 15 14
2 22 -2 22 -10 0 -24 21 -38 35 -25 10 9 10 15 1 26 -6 8 -6 12 -1 9 6 -3 36
-2 68 1 34 4 61 3 64 -2 3 -6 1 -7 -5 -3 -7 4 -12 3 -12 -2 0 -5 13 -9 29 -8
16 1 27 4 24 9 -2 4 9 7 26 7 16 0 32 4 35 8 3 5 -43 8 -102 8 -75 -1 -106 2
-105 10 3 16 -35 25 -44 12 -3 -6 -1 -8 5 -4 6 3 13 2 16 -3 3 -5 0 -11 -7
-13 -12 -5 -81 -2 -107 4 -15 3 -59 65 -60 83 0 6 5 3 10 -5 6 -9 10 -11 10
-3 0 7 7 10 17 6 10 -4 14 -2 10 4 -4 6 12 5 42 -3 26 -6 61 -11 78 -10z
m3028 -24 c3 -6 -5 -10 -18 -10 -23 0 -42 21 -30 34 7 6 39 -10 48 -24z
m-3324 -73 c14 4 20 2 16 -5 -4 -5 -1 -13 5 -15 7 -3 -5 -4 -26 -2 -22 3 -47
12 -55 21 -9 9 -10 14 -3 10 6 -4 12 -2 12 4 0 7 6 6 15 -3 8 -9 24 -13 36
-10z m3204 -38 c4 -6 -7 -4 -23 5 -17 9 -34 21 -37 27 -4 6 7 4 23 -5 17 -9
34 -21 37 -27z m-3050 11 c-4 -14 -2 -20 8 -20 18 0 30 -27 16 -36 -6 -3 -23
6 -38 20 -15 15 -39 26 -54 26 -15 0 -27 4 -27 9 0 6 9 8 20 6 11 -2 20 0 20
6 0 5 14 9 31 9 26 0 29 -3 24 -20z m140 10 c3 -5 1 -10 -4 -10 -6 0 -11 5
-11 10 0 6 2 10 4 10 3 0 8 -4 11 -10z m1646 -1 c366 -37 669 -174 967 -439
78 -69 135 -136 243 -286 46 -63 134 -222 127 -229 -2 -2 -115 -1 -251 2 -190
5 -247 9 -245 19 2 6 -9 25 -24 41 -15 15 -47 52 -72 81 -168 194 -398 329
-653 384 -87 18 -139 23 -263 23 -167 0 -209 -7 -384 -61 -60 -18 -114 -30
-120 -27 -6 3 -8 2 -4 -2 5 -5 -20 -24 -55 -43 -167 -93 -364 -275 -474 -439
-181 -270 -243 -634 -163 -953 29 -120 110 -299 177 -392 121 -170 333 -351
493 -421 281 -124 610 -142 902 -51 365 115 682 432 803 804 15 47 31 89 36
94 18 20 8 -33 -26 -133 -133 -396 -481 -716 -881 -809 -179 -42 -415 -49
-583 -16 -40 8 -75 13 -78 11 -5 -5 112 -41 192 -59 38 -8 52 -14 37 -16 -22
-3 -23 -4 -5 -17 24 -19 13 -19 -110 0 -173 26 -424 128 -481 195 -13 16 -26
27 -29 24 -3 -3 -8 0 -13 7 -4 8 -3 10 4 5 7 -4 12 -2 12 4 0 6 20 -3 44 -19
38 -26 91 -51 161 -75 11 -4 7 0 -9 9 -52 30 -274 214 -342 283 -186 190 -299
408 -339 656 -8 50 -15 111 -15 136 0 62 -9 87 -31 93 -27 7 -24 27 5 27 22 0
24 4 28 58 2 32 -1 60 -7 64 -45 30 -45 30 -30 78 9 25 14 33 12 17 -3 -15 0
-30 4 -33 5 -3 9 9 9 26 0 17 7 41 15 54 9 13 17 43 19 68 2 30 23 86 62 166
33 66 56 118 52 116 -4 -3 -5 2 -2 10 3 9 11 13 18 9 6 -3 8 -3 4 2 -10 11 30
85 45 82 7 -1 11 6 9 17 -2 12 1 16 9 10 7 -4 10 -3 6 3 -10 17 149 178 245
249 140 103 352 198 528 236 220 49 650 16 638 -48 -2 -11 25 -32 87 -66 244
-135 353 -218 486 -373 l82 -95 214 0 215 0 -20 33 c-10 17 -44 75 -75 128
-30 52 -62 101 -71 108 -8 7 -12 20 -9 28 4 10 2 14 -5 9 -11 -6 -25 9 -28 32
-5 32 -176 197 -286 275 -129 91 -386 226 -407 213 -4 -3 -29 1 -56 9 -26 8
-58 15 -69 14 -21 0 -21 0 2 -16 12 -8 22 -21 22 -28 0 -17 -28 -27 -53 -19
-11 3 -81 16 -156 29 -75 12 -122 24 -106 25 26 2 24 4 -17 14 -65 15 -322 6
-340 -13 -11 -11 -6 -13 32 -8 28 4 37 3 25 -2 -11 -5 -45 -11 -75 -15 -61 -8
-233 -47 -228 -52 2 -2 64 9 138 23 115 22 163 26 325 26 111 1 219 -4 260
-12 82 -14 222 -56 280 -82 l40 -19 -40 5 c-22 2 -69 11 -103 20 -35 9 -66 14
-70 11 -3 -3 0 -6 6 -6 27 0 121 -42 126 -57 5 -12 4 -13 -7 -5 -8 7 -16 9
-19 6 -3 -2 -26 0 -51 7 -86 21 -71 3 33 -41 84 -35 99 -45 82 -51 -14 -5 -46
0 -93 16 -79 27 -115 33 -89 14 12 -9 11 -10 -7 -6 -36 8 -27 -2 17 -19 58
-24 42 -28 -31 -10 -95 25 -250 46 -331 46 -113 0 -309 -36 -428 -78 -93 -33
-96 -34 -50 -8 37 21 40 25 18 22 -15 -3 -33 -8 -40 -12 -14 -9 -78 -17 -78
-10 0 3 27 15 60 27 77 28 73 36 -5 9 -61 -21 -76 -20 -57 3 7 8 9 16 7 19 -3
3 25 17 62 31 37 14 61 26 53 26 -53 2 -279 -115 -322 -166 -19 -24 24 -2 68
34 26 21 48 31 58 27 16 -6 13 -24 -5 -24 -6 0 -7 5 -3 12 4 7 3 8 -5 4 -6 -4
-9 -11 -6 -16 3 -5 -12 -18 -34 -29 -22 -12 -43 -26 -47 -32 -4 -8 -1 -8 12
-1 11 5 25 7 33 4 8 -3 11 0 7 7 -5 7 -1 9 8 5 9 -3 16 -10 16 -15 0 -4 8 -6
18 -2 26 9 8 -6 -93 -78 -202 -143 -370 -340 -477 -556 -23 -48 -46 -89 -50
-91 -5 -2 -8 -13 -8 -25 -1 -29 -28 -127 -30 -107 -1 10 -4 9 -10 -5 -7 -16
-9 -14 -9 14 -1 46 -10 35 -15 -18 -2 -30 0 -39 8 -32 8 7 12 -1 13 -30 2 -37
0 -39 -28 -39 -24 0 -29 4 -26 18 3 9 13 52 22 94 34 159 95 299 200 453 35
52 63 95 61 95 -7 0 -95 -120 -126 -172 -19 -31 -37 -55 -41 -52 -4 2 -11 -1
-15 -7 -4 -8 -3 -9 4 -5 16 10 15 3 -5 -39 -10 -20 -20 -30 -23 -24 -5 7 -9 5
-13 -6 -4 -9 -3 -13 3 -10 17 10 11 -15 -16 -68 -14 -29 -33 -89 -41 -136 -12
-63 -18 -80 -25 -67 -6 11 -6 28 1 48 6 17 11 41 11 52 0 12 14 50 31 84 35
73 34 95 -2 27 -13 -25 -28 -45 -32 -45 -4 0 -7 -6 -6 -12 4 -18 -23 -159 -29
-154 -4 4 4 59 24 169 3 15 9 25 14 22 4 -3 11 2 14 11 3 8 2 12 -4 9 -14 -9
-13 -5 16 77 40 111 123 250 227 383 l39 50 -46 -50 c-138 -151 -297 -481
-313 -653 -3 -34 -8 -60 -11 -57 -10 10 -2 88 18 165 11 44 19 83 18 87 -4 17
14 73 22 68 5 -3 12 0 16 6 4 8 3 9 -4 5 -13 -8 -14 -1 -6 31 4 13 10 20 15
18 12 -8 30 31 22 51 -5 13 -3 15 7 9 9 -5 11 -4 6 3 -4 7 -2 12 3 12 6 0 11
5 11 11 0 6 14 30 31 55 16 24 27 49 24 54 -8 13 14 52 25 45 5 -3 21 14 36
37 14 24 38 55 52 70 14 15 23 30 20 34 -4 3 -16 -8 -29 -25 -12 -17 -26 -28
-30 -25 -5 3 -25 -23 -46 -57 -21 -34 -46 -71 -56 -83 -16 -20 -17 -20 -11 -1
5 15 -2 11 -32 -15 l-38 -35 36 41 c20 23 39 56 43 73 4 17 11 31 15 31 5 0
14 9 20 21 11 19 10 20 -9 10 -11 -6 -23 -16 -26 -21 -3 -6 -11 -10 -16 -10
-16 0 6 33 62 94 28 31 48 56 44 56 -4 0 -2 8 5 18 7 9 -13 -10 -45 -43 -75
-79 -148 -182 -139 -197 4 -6 3 -8 -3 -5 -6 4 -19 -10 -29 -31 -10 -20 -32
-56 -47 -80 -16 -23 -26 -48 -24 -55 3 -7 -10 -39 -28 -72 -69 -128 -116 -328
-129 -545 -2 -47 -1 -119 3 -160 8 -79 6 -94 -10 -70 -5 9 -7 93 -5 200 3 150
9 208 30 305 54 256 147 466 293 662 347 465 929 721 1504 662z m-2341 -88
c-41 -7 -48 -24 -49 -128 -1 -67 8 -89 24 -63 3 6 2 10 -4 10 -6 0 -6 12 0 35
10 36 44 76 79 95 24 13 44 4 36 -16 -3 -8 -1 -14 4 -14 6 0 10 8 10 19 0 19
15 20 143 12 9 -1 17 -8 17 -16 0 -19 17 -19 27 0 13 23 38 2 25 -21 -19 -35
-19 -174 -1 -174 6 0 13 9 16 20 5 20 23 28 23 11 0 -5 8 -11 18 -13 15 -3 14
-6 -5 -23 -20 -17 -23 -29 -24 -105 0 -47 -4 -103 -8 -125 -10 -45 -11 -39
-17 99 -4 96 -8 116 -20 104 -8 -9 -8 -176 1 -244 6 -48 2 -89 -18 -195 -14
-74 -29 -167 -32 -206 -4 -40 -8 -81 -10 -90 -2 -10 -4 -40 -4 -66 -1 -40 -5
-50 -21 -54 -11 -3 -20 -10 -20 -15 0 -5 5 -6 10 -3 6 4 5 -5 -2 -20 -9 -19
-9 -28 0 -37 16 -16 15 -32 0 -18 -7 6 -22 18 -33 26 -16 13 -17 15 -2 10 21
-7 23 16 3 33 -20 17 -17 53 4 46 13 -4 13 -3 -1 7 -9 7 -14 22 -12 33 2 11 4
32 5 47 0 15 5 25 10 22 11 -7 10 10 -2 22 -5 5 -11 22 -12 36 -1 15 -4 25 -6
23 -2 -2 -15 0 -28 5 -26 10 -28 7 -24 -41 0 -14 -6 -31 -14 -39 -15 -12 -23
0 -9 13 4 4 7 35 8 70 0 34 2 85 4 112 4 50 4 50 12 15 5 -25 6 -17 2 25 -6
72 -5 183 2 195 3 4 1 18 -3 30 -6 16 -13 -23 -22 -124 -7 -81 -15 -145 -17
-142 -4 4 6 158 23 368 7 80 0 124 -15 99 -7 -10 -10 -8 -16 9 -12 38 -13 120
-1 120 6 0 3 7 -7 14 -10 8 -14 17 -8 20 5 3 12 0 14 -6 3 -8 6 -7 6 4 1 9 7
21 14 25 16 10 39 53 30 54 -5 0 -18 2 -31 3 -16 2 -29 -5 -40 -23 -8 -14 -31
-43 -50 -63 -28 -29 -36 -47 -39 -85 -1 -26 -5 -54 -8 -61 -3 -7 0 -23 6 -34
8 -15 8 -19 0 -13 -8 4 -10 -13 -6 -61 3 -39 2 -70 -4 -73 -5 -4 -12 -44 -16
-91 -3 -47 -12 -134 -20 -195 -7 -60 -16 -148 -20 -195 -3 -47 -8 -110 -10
-140 -3 -30 -12 -147 -21 -260 -9 -113 -19 -243 -23 -290 -8 -81 -8 -82 -10
-25 0 34 6 137 14 230 8 94 19 247 25 340 6 94 17 244 25 335 8 91 26 309 40
485 14 176 27 325 29 330 2 6 22 9 47 6 l44 -5 -35 -5z m352 -8 l98 -6 -5 -66
c-13 -172 -84 -1050 -100 -1241 -16 -185 -63 -807 -94 -1248 -11 -145 -21
-265 -23 -266 -1 -2 -113 2 -248 8 l-245 11 4 68 c1 37 7 100 11 140 7 55 8
43 4 -55 l-6 -128 54 -2 c29 -1 104 -2 166 -3 62 -1 116 -5 119 -9 3 -3 32 -6
64 -6 58 0 58 0 63 33 7 47 27 283 25 293 -2 5 1 34 4 64 4 30 16 174 27 320
12 146 23 285 26 310 9 97 30 468 29 520 0 30 2 78 6 105 4 28 10 109 13 180
4 72 11 166 17 210 11 96 35 429 44 612 l7 132 -24 6 c-12 3 -77 9 -143 14
-87 6 -102 9 -55 10 36 0 109 -2 162 -6z m1815 1 c-3 -3 -12 -4 -19 -1 -8 3
-5 6 6 6 11 1 17 -2 13 -5z m1398 -15 c-4 -5 -12 -9 -18 -8 -9 0 -8 2 1 6 6 2
9 10 6 15 -4 7 -2 8 5 4 6 -4 9 -12 6 -17z m-25 -19 c11 -11 16 -20 11 -20 -6
0 -13 5 -16 10 -3 6 -11 10 -17 10 -6 0 -3 -9 7 -20 10 -11 14 -20 9 -20 -5 0
-20 12 -34 27 -14 15 -20 24 -13 20 6 -4 14 -3 18 3 9 14 12 13 35 -10z
m-2915 -30 c-8 -31 -11 -34 -25 -25 -8 5 -7 11 2 23 8 9 8 13 2 9 -7 -4 -14
-1 -17 6 -3 7 5 12 20 12 21 0 23 -3 18 -25z m6457 -80 c49 -14 94 -52 120
-104 20 -36 22 -57 22 -176 1 -120 -3 -150 -32 -263 -18 -71 -37 -137 -42
-148 -9 -16 -22 -19 -85 -19 -88 0 -92 4 -94 100 -1 44 -8 77 -22 105 -30 57
-46 252 -29 355 13 77 40 144 62 153 22 9 61 7 100 -3z m-2634 -117 c70 -126
100 -192 78 -174 -11 9 -20 10 -35 1 -12 -6 -21 -8 -21 -4 0 3 -8 0 -17 -7
-11 -10 -14 -10 -9 -1 4 6 3 12 -3 12 -6 0 -20 18 -31 39 -21 41 -54 71 -74
67 -6 -2 -8 -1 -5 1 4 2 0 20 -7 41 -21 58 -17 88 12 111 15 12 32 21 39 21 7
0 40 -48 73 -107z m1583 25 c43 -32 76 -131 90 -262 5 -50 12 -104 16 -121 3
-16 7 -43 8 -60 1 -16 3 -30 4 -30 2 0 4 -7 6 -16 2 -12 -7 -18 -34 -23 -62
-10 -96 -7 -139 14 -22 11 -51 20 -64 20 -13 0 -33 3 -45 6 -21 6 -22 10 -17
63 6 50 2 66 -24 127 l-31 69 -1 -48 c0 -55 -16 -90 -59 -131 -24 -23 -28 -32
-19 -43 18 -22 5 -24 -73 -13 -40 6 -93 8 -116 4 l-43 -6 -21 46 c-31 70 -34
108 -13 151 21 45 139 163 171 171 51 13 124 -33 156 -98 l15 -31 -1 59 c-1
45 4 69 23 102 13 23 29 42 36 42 6 0 14 6 17 14 12 32 115 28 158 -6z m-1783
-19 c-11 -17 -10 -22 5 -33 9 -7 17 -18 17 -24 0 -6 10 -14 23 -18 l22 -8 -25
-7 c-43 -12 -127 -10 -138 4 -14 17 -7 26 51 70 56 43 62 45 45 16z m-4272
-16 c-2 -16 -5 -52 -5 -82 -1 -30 -3 -52 -5 -50 -10 11 -13 84 -4 119 12 46
21 54 14 13z m2654 -13 c8 -5 11 -10 5 -10 -5 0 -17 5 -25 10 -8 5 -10 10 -5
10 6 0 17 -5 25 -10z m-4254 -62 c24 -26 59 -51 78 -58 52 -17 96 -77 96 -132
0 -104 -57 -144 -194 -135 l-80 5 -60 -42 c-76 -53 -112 -66 -191 -66 -80 0
-124 19 -170 72 -50 58 -65 96 -65 165 1 106 70 194 163 210 32 5 47 0 98 -32
l61 -38 24 29 c13 16 23 32 24 36 1 21 58 38 114 35 55 -3 61 -6 102 -49z
m1671 -180 c-1 -86 -5 -155 -9 -152 -4 3 -9 -37 -9 -88 -1 -51 -5 -106 -9
-123 -10 -37 -10 -35 -13 187 -2 132 0 181 10 194 8 11 13 49 14 98 0 52 3 74
8 61 5 -11 8 -91 8 -177z m33 100 c0 -51 -6 -47 -15 10 -4 30 -3 42 4 37 6 -3
11 -25 11 -47z m-103 6 c-3 -3 -12 -4 -19 -1 -8 3 -5 6 6 6 11 1 17 -2 13 -5z
m320 -26 c-3 -7 -5 -2 -5 12 0 14 2 19 5 13 2 -7 2 -19 0 -25z m4111 -23 c-3
-3 -9 2 -12 12 -6 14 -5 15 5 6 7 -7 10 -15 7 -18z m-4780 -51 c8 -30 9 -51 2
-63 -13 -26 -51 -49 -74 -45 -11 1 -26 -5 -33 -14 -7 -9 -2 13 11 49 51 139
72 156 94 73z m309 -51 c-3 -10 -5 -2 -5 17 0 19 2 27 5 18 2 -10 2 -26 0 -35z
m4531 -44 c-12 -18 -10 -23 17 -45 17 -13 40 -27 53 -30 23 -7 26 -16 22 -79
-2 -48 -21 -72 -64 -80 -17 -4 -60 -16 -95 -27 -71 -23 -81 -18 -81 36 0 43
32 102 96 179 58 69 74 83 52 46z m-3509 -33 c-12 -20 -23 -35 -26 -33 -2 3 6
21 18 41 12 20 23 35 26 33 2 -3 -6 -21 -18 -41z m1001 -37 c12 -23 20 -42 18
-43 -11 -8 -165 -66 -176 -66 -8 0 -10 -5 -6 -12 5 -9 4 -10 -3 -3 -6 6 -15
24 -21 41 -8 27 -7 32 12 44 35 23 141 80 148 80 4 0 17 -18 28 -41z m571 -7
c36 -18 75 -34 86 -35 14 -1 19 -6 15 -17 -10 -29 -14 -30 -40 -11 -15 10 -37
22 -49 25 -13 4 -23 12 -23 17 0 6 -4 7 -10 4 -5 -3 -10 -1 -10 5 0 6 -4 8
-10 5 -5 -3 -10 -2 -10 3 0 15 -33 9 -47 -8 -18 -22 -16 -2 4 31 9 16 20 25
23 21 3 -4 35 -22 71 -40z m-1645 -70 c-18 -16 -18 -16 -6 6 6 13 14 21 18 18
3 -4 -2 -14 -12 -24z m3147 -14 c2 -13 8 -32 11 -43 7 -19 7 -19 -4 -2 -16 24
-31 79 -21 72 5 -2 11 -15 14 -27z m-3720 -11 c3 -8 2 -20 -3 -26 -5 -9 -7 -4
-7 13 0 29 2 32 10 13z m5510 -28 c64 -14 108 -18 160 -14 61 4 81 2 127 -18
l55 -23 5 -55 c7 -73 -5 -181 -24 -218 -9 -16 -32 -42 -52 -57 -28 -22 -45
-27 -86 -26 -61 1 -91 20 -118 72 -11 22 -26 40 -33 40 -6 0 -1 9 12 19 l24
19 -17 88 c-10 49 -22 96 -27 106 -5 9 -27 19 -51 22 -114 17 -177 31 -215 47
-24 10 -43 20 -43 22 0 11 206 -7 283 -24z m-6117 5 c-26 -26 -36 -51 -42
-107 -3 -28 -10 -55 -16 -58 -5 -3 -10 -15 -11 -27 -1 -15 -4 -18 -13 -11 -13
10 -5 47 25 122 6 16 9 33 5 38 -3 5 0 9 5 9 6 0 11 9 11 19 0 17 12 25 43 30
5 0 1 -6 -7 -15z m94 -13 c0 -11 -4 -23 -10 -26 -5 -3 -10 3 -10 14 0 10 -6
22 -12 24 -7 3 -3 6 10 6 15 1 22 -5 22 -18z m992 -7 c-5 -10 -17 -19 -26 -20
-9 -1 -14 2 -10 7 3 5 9 7 14 4 5 -3 12 4 15 16 4 11 9 18 12 16 3 -3 0 -13
-5 -23z m17 -36 c-12 -24 -35 -77 -50 -118 -15 -41 -33 -74 -39 -72 -6 1 -9
-1 -6 -6 3 -5 -2 -28 -11 -53 -8 -24 -21 -71 -28 -104 -12 -52 -14 -56 -15
-25 l-2 35 -8 -30 c-7 -26 -8 -23 -8 20 0 28 2 43 5 35 4 -8 16 23 29 70 13
46 20 88 17 93 -4 6 -1 7 7 2 8 -5 11 -3 8 6 -3 8 -10 13 -15 12 -13 -2 -14
35 -1 43 7 5 8 2 3 -6 -5 -9 -4 -11 3 -6 7 4 15 21 20 39 6 22 14 32 28 32 13
0 18 7 17 20 -1 19 -1 19 12 2 12 -16 13 -16 18 3 3 11 5 23 5 27 0 5 22 22
30 23 1 0 -7 -19 -19 -42z m-747 0 c-8 -8 -9 -4 -5 13 4 13 8 18 11 10 2 -7
-1 -18 -6 -23z m245 -5 c-3 -10 -5 -4 -5 12 0 17 2 24 5 18 2 -7 2 -21 0 -30z
m1836 30 c-7 -2 -19 -2 -25 0 -7 3 -2 5 12 5 14 0 19 -2 13 -5z m-125 -22
c-217 -59 -376 -207 -465 -431 -12 -31 -13 -32 -7 -5 3 16 22 63 42 105 47 96
175 229 272 279 72 39 162 70 200 70 14 0 -5 -8 -42 -18z m2050 12 c-1 -5 6
-20 16 -35 11 -17 15 -35 11 -45 -6 -15 -9 -13 -20 12 -22 53 -27 75 -16 75 6
0 10 -3 9 -7z m-4312 -34 c-8 -12 -23 -46 -32 -76 -9 -29 -21 -53 -25 -53 -12
0 -11 4 7 47 9 21 22 49 27 63 14 32 29 52 34 46 3 -3 -2 -15 -11 -27z m1055
-26 c-12 -20 -14 -14 -5 12 4 9 9 14 11 11 3 -2 0 -13 -6 -23z m-1024 -23 c-5
-41 -17 -51 -17 -13 0 26 6 43 17 43 1 0 1 -14 0 -30z m269 -38 c-12 -11 -17
7 -9 34 l8 29 3 -28 c2 -16 1 -31 -2 -35z m-49 26 c-3 -8 -6 -5 -6 6 -1 11 2
17 5 13 3 -3 4 -12 1 -19z m7023 -23 c48 -18 63 -32 55 -53 -3 -8 -2 -19 2
-25 23 -37 -5 -135 -48 -171 -41 -35 -90 -43 -128 -20 -19 11 -26 21 -19 25 8
5 6 12 -5 24 -20 19 -22 45 -4 46 6 0 3 4 -8 9 -11 5 -15 9 -9 9 13 1 15 31 2
31 -5 0 -6 5 -3 11 4 5 7 36 8 67 1 41 6 59 17 64 22 11 89 3 140 -17z m-2916
-50 c7 -34 -7 -15 -19 25 -5 16 -4 22 3 15 5 -5 12 -23 16 -40z m446 41 c0 -2
3 -11 6 -19 4 -12 -8 -16 -58 -20 -35 -4 -78 -9 -95 -13 -38 -7 -46 10 -10 21
100 32 157 43 157 31z m-2550 -10 c0 -2 -7 -7 -16 -10 -8 -3 -12 -2 -9 4 6 10
25 14 25 6z m4581 -19 c105 -56 121 -203 30 -280 -24 -19 -44 -27 -72 -27 -76
0 -128 45 -153 131 -21 70 -1 138 52 174 46 31 86 32 143 2z m-6813 -12 c0
-14 -4 -25 -8 -25 -5 0 -7 8 -5 18 2 9 4 20 4 25 2 18 9 4 9 -18z m229 -7 c-3
-8 -6 -5 -6 6 -1 11 2 17 5 13 3 -3 4 -12 1 -19z m-313 -13 c-4 -8 -10 -12
-15 -9 -11 6 -2 24 11 24 5 0 7 -7 4 -15z m4666 -28 c0 -5 -4 -5 -10 -2 -5 3
-10 14 -10 23 0 15 2 15 10 2 5 -8 10 -19 10 -23z m-4843 4 c35 -1 74 -78 81
-156 3 -39 1 -65 -5 -65 -14 0 -9 -35 6 -54 14 -17 19 -87 8 -121 -18 -57 -34
-94 -47 -110 -30 -36 -144 -115 -166 -115 -12 0 -29 -7 -37 -15 -13 -12 -15
-10 -21 17 -15 74 9 416 39 557 8 40 15 73 15 75 0 1 24 -1 53 -5 28 -4 62 -8
74 -8z m3504 -10 c-24 -18 -24 -21 -12 -62 13 -41 14 -42 28 -24 15 19 15 19
9 1 -4 -11 3 -35 18 -62 20 -35 21 -44 9 -48 -19 -8 -58 -8 -50 0 3 3 -5 27
-18 52 -13 26 -27 60 -31 75 -3 16 -13 31 -21 34 -9 3 4 14 34 28 59 29 65 30
34 6z m1133 3 c3 -8 2 -12 -4 -9 -6 3 -10 10 -10 16 0 14 7 11 14 -7z m-3493
-21 c-12 -20 -14 -14 -5 12 4 9 9 14 11 11 3 -2 0 -13 -6 -23z m3866 -12 c-2
-36 -4 -38 -25 -30 -52 20 -64 30 -52 44 10 12 30 19 67 24 7 0 10 -14 10 -38z
m-3805 -69 c-25 -83 -32 -158 -14 -154 6 1 12 -3 12 -9 0 -6 -7 -9 -15 -5 -8
3 -15 0 -15 -6 0 -8 -3 -8 -9 -2 -6 5 -4 39 4 84 17 98 48 200 53 177 2 -10
-5 -48 -16 -85z m715 67 l42 -18 -34 -69 c-19 -38 -37 -81 -41 -96 -7 -31 -16
-32 -71 -7 l-42 19 31 84 c17 46 30 91 30 101 -1 20 10 18 85 -14z m733 1 c0
-5 -5 -10 -11 -10 -5 0 -7 5 -4 10 3 6 8 10 11 10 2 0 4 -4 4 -10z m60 -10 c0
-5 -7 -10 -16 -10 -8 0 -12 5 -9 10 3 6 10 10 16 10 5 0 9 -4 9 -10z m1908
-15 c-3 -3 -9 2 -12 12 -6 14 -5 15 5 6 7 -7 10 -15 7 -18z m627 -73 c-2 -3
-12 -1 -22 3 -12 5 -14 9 -5 12 6 3 13 23 13 46 l1 42 9 -50 c4 -27 6 -51 4
-53z m-2705 78 c0 -5 -5 -10 -11 -10 -5 0 -7 5 -4 10 3 6 8 10 11 10 2 0 4 -4
4 -10z m54 -5 c-4 -8 -10 -15 -14 -15 -4 0 -10 7 -14 15 -4 10 1 15 14 15 13
0 18 -5 14 -15z m-66 -14 c10 -6 9 -10 -7 -14 -14 -3 -21 0 -21 9 0 16 9 18
28 5z m2102 -26 c14 -19 14 -19 -2 -6 -10 7 -18 18 -18 24 0 6 1 8 3 6 1 -2 9
-13 17 -24z m-2151 6 c13 -9 9 -13 -20 -24 -13 -4 -16 -1 -12 14 6 21 11 23
32 10z m2376 -30 c4 -15 3 -21 -3 -17 -5 3 -12 17 -15 32 -5 30 8 20 18 -15z
m-4210 19 c3 -5 1 -10 -4 -10 -6 0 -11 5 -11 10 0 6 2 10 4 10 3 0 8 -4 11
-10z m1761 -18 c-17 -16 -18 -16 -5 5 7 12 15 20 18 17 3 -2 -3 -12 -13 -22z
m2311 6 c-3 -8 -6 -5 -6 6 -1 11 2 17 5 13 3 -3 4 -12 1 -19z m267 7 c-4 -8
-7 -15 -9 -15 -2 0 -5 7 -9 15 -3 9 0 15 9 15 9 0 12 -6 9 -15z m-5954 -44 c0
-15 -50 -70 -74 -82 -11 -6 -4 3 16 20 20 17 40 40 43 51 7 21 15 27 15 11z
m3328 -23 c-39 -51 -68 -113 -89 -191 l-20 -72 5 54 c6 61 55 173 93 214 36
37 41 34 11 -5z m2282 -18 c0 -11 -2 -20 -4 -20 -2 0 -6 9 -9 20 -3 11 -1 20
4 20 5 0 9 -9 9 -20z m230 -32 c0 -35 -12 -30 -17 7 -2 14 1 25 7 25 5 0 10
-14 10 -32z m139 -25 c1 -7 -5 -13 -12 -13 -10 0 -12 10 -9 32 4 28 6 30 13
13 4 -11 8 -26 8 -32z m-3772 23 c-3 -7 -1 -18 4 -23 5 -5 0 -14 -12 -21 -18
-12 -19 -11 -13 15 8 32 13 43 21 43 3 0 3 -6 0 -14z m27 -47 c-8 -17 -10 -13
-11 23 -1 37 0 40 9 21 7 -15 8 -30 2 -44z m3391 41 c3 -5 1 -10 -4 -10 -6 0
-11 5 -11 10 0 6 2 10 4 10 3 0 8 -4 11 -10z m-3517 -23 c2 -10 -3 -17 -12
-17 -10 0 -16 9 -16 21 0 24 23 21 28 -4z m876 -51 c-3 -21 -8 -35 -11 -32 -2
2 -1 20 3 40 3 21 8 35 11 32 2 -2 1 -20 -3 -40z m959 14 c16 -19 16 -20 -2
-20 -14 0 -19 6 -18 20 1 11 2 20 2 20 0 0 8 -9 18 -20z m717 10 c195 -6 415
-13 488 -16 l132 -6 0 -87 c0 -126 -18 -340 -35 -423 -23 -109 -71 -240 -133
-363 -54 -108 -122 -217 -143 -230 -6 -4 7 19 29 51 59 86 119 207 143 288 12
39 25 80 30 91 21 54 49 157 59 215 14 82 31 396 24 425 -5 22 -7 22 -407 31
-694 16 -749 13 -670 -30 20 -11 23 -15 11 -16 -10 0 -18 -4 -18 -9 0 -14 27
-19 109 -20 117 -2 97 -11 -25 -12 -111 -1 -118 -2 -50 -14 42 -7 38 -22 -8
-27 -49 -5 -44 -28 6 -29 l43 -2 -42 -6 c-60 -10 -65 -21 -9 -21 29 0 45 -4
41 -10 -3 -5 3 -10 14 -10 12 0 21 -4 21 -10 0 -5 -26 -11 -57 -12 l-58 -1 45
-7 45 -7 -40 -2 c-37 -1 -89 -20 -57 -21 7 0 10 -4 7 -10 -4 -6 7 -10 27 -10
30 -1 31 -2 13 -13 -18 -11 -13 -13 40 -18 l60 -6 -62 -1 c-34 -1 -65 -7 -69
-13 -5 -8 15 -10 68 -8 60 3 75 1 74 -10 -1 -11 22 -15 109 -18 273 -11 270
-20 -5 -15 -162 2 -297 6 -298 8 -2 1 -1 95 3 208 l8 206 91 0 c50 0 251 -4
446 -10z m-4883 -6 c-3 -3 -12 -4 -19 -1 -8 3 -5 6 6 6 11 1 17 -2 13 -5z
m5963 -70 c0 -17 -22 -14 -28 4 -2 7 3 12 12 12 9 0 16 -7 16 -16z m130 -20
c0 -14 -4 -23 -9 -20 -5 3 -7 15 -4 26 7 28 13 25 13 -6z m-2903 -26 c-3 -7
-5 -2 -5 12 0 14 2 19 5 13 2 -7 2 -19 0 -25z m2006 15 c-18 -2 -48 -2 -65 0
-18 2 -4 4 32 4 36 0 50 -2 33 -4z m-680 -30 c-7 -2 -19 -2 -25 0 -7 3 -2 5
12 5 14 0 19 -2 13 -5z m-2068 -14 c3 -3 -1 -6 -7 -6 -7 -1 -30 -4 -50 -8 -25
-4 -38 -2 -38 5 0 6 -4 8 -10 5 -5 -3 -10 -2 -10 3 0 9 105 10 115 1z m85 0
c0 -5 -8 -9 -17 -7 -10 1 -24 -1 -30 -5 -13 -8 -18 5 -6 16 10 11 53 8 53 -4z
m-210 -3 c0 -2 -7 -7 -16 -10 -8 -3 -12 -2 -9 4 6 10 25 14 25 6z m1883 -24
c2 -12 0 -21 -5 -20 -5 2 -8 7 -6 10 2 4 -5 13 -15 20 -18 13 -17 14 2 14 12
0 21 -8 24 -24z m-1016 -14 c-3 -7 -5 -2 -5 12 0 14 2 19 5 13 2 -7 2 -19 0
-25z m2669 -3 c0 -14 -4 -25 -8 -25 -10 0 -10 13 -2 34 9 23 12 20 10 -9z
m-1333 8 c-7 -2 -19 -2 -25 0 -7 3 -2 5 12 5 14 0 19 -2 13 -5z m50 0 c-7 -2
-19 -2 -25 0 -7 3 -2 5 12 5 14 0 19 -2 13 -5z m705 -10 c-26 -2 -71 -2 -100
0 -29 2 -8 3 47 3 55 0 79 -1 53 -3z m686 -8 c3 -8 1 -15 -4 -15 -6 0 -10 7
-10 15 0 8 2 15 4 15 2 0 6 -7 10 -15z m-1451 -12 c-7 -2 -21 -2 -30 0 -10 3
-4 5 12 5 17 0 24 -2 18 -5z m-326 -25 c-3 -8 -6 -5 -6 6 -1 11 2 17 5 13 3
-3 4 -12 1 -19z m1949 13 c-3 -5 2 -15 11 -22 14 -12 16 -12 8 1 -7 12 -6 13
6 3 9 -7 58 -20 110 -29 52 -9 99 -20 104 -24 10 -9 16 -10 40 -10 9 0 12 -6
9 -15 -4 -9 0 -15 9 -15 9 0 18 8 20 18 9 32 7 -63 -3 -148 -19 -177 -44 -310
-56 -310 -27 0 -114 24 -114 31 0 4 4 18 9 32 11 28 7 36 -39 67 -84 57 -130
103 -156 155 -26 54 -26 56 -14 140 8 55 19 94 32 110 18 24 35 35 24 16z
m1332 -68 c185 -2 239 -6 271 -23 9 -5 38 -17 64 -27 32 -12 50 -25 53 -40 3
-12 19 -27 35 -33 16 -7 27 -16 24 -20 -3 -4 7 -11 20 -14 14 -4 23 -11 20
-16 -3 -5 0 -7 8 -4 8 3 18 1 22 -5 3 -6 -1 -11 -10 -11 -9 0 -15 -6 -12 -12
2 -7 10 -13 18 -12 9 1 14 -10 15 -31 0 -26 -3 -31 -18 -27 -17 4 -24 -12 -19
-41 1 -5 -3 -6 -9 -2 -5 3 -13 -1 -16 -9 -3 -8 -21 -20 -40 -26 -18 -6 -33
-14 -32 -18 1 -4 -14 -38 -33 -77 -40 -83 -43 -104 -18 -126 20 -18 149 -60
311 -104 183 -49 288 -92 322 -131 38 -44 50 -89 29 -109 -8 -8 -16 -15 -17
-15 -22 0 -224 41 -422 86 -137 30 -289 64 -338 75 -104 23 -199 54 -231 75
-12 8 -30 12 -39 8 -26 -10 -237 27 -243 42 -3 8 5 29 16 48 28 44 100 79 165
80 34 0 43 2 30 8 -12 5 -4 6 21 3 29 -4 36 -3 25 4 -12 9 -11 11 8 11 13 0
21 -4 18 -9 -4 -5 3 -7 15 -4 16 4 17 8 7 14 -9 6 -6 9 12 10 14 1 28 1 31 1
3 -1 6 4 6 11 0 7 8 58 17 115 9 57 14 107 11 111 -2 5 -49 27 -102 50 -172
72 -190 90 -198 192 -4 53 -3 59 6 34 l10 -30 187 -2z m-7518 23 c81 -19 173
-57 203 -84 57 -51 75 -167 37 -230 -19 -30 -97 -87 -197 -142 -30 -17 -43
-30 -43 -45 0 -21 -3 -22 -49 -14 -61 9 -82 20 -115 59 -55 66 -58 163 -7 235
30 42 45 73 61 127 8 26 5 29 -57 58 -45 21 -69 28 -77 21 -8 -7 -21 -3 -41
15 l-30 25 120 -4 c66 -2 154 -11 195 -21z m1379 20 c-2 -2 -15 -9 -29 -15
-24 -11 -24 -11 -6 3 16 13 49 24 35 12z m4530 -39 c-1 -31 -1 -31 -9 -7 -11
36 -11 52 0 45 6 -3 10 -21 9 -38z m-576 26 c-29 -2 -77 -2 -105 0 -29 2 -6 3
52 3 58 0 81 -1 53 -3z m-1109 -25 c-15 -50 -95 -144 -151 -179 -96 -60 -266
-69 -364 -18 -22 11 -39 21 -39 22 0 2 33 -7 72 -21 170 -57 311 -9 418 141
55 77 77 96 64 55z m-4976 -12 c44 -23 69 -58 87 -121 10 -33 24 -64 32 -69
25 -14 63 -108 63 -155 0 -62 -32 -123 -78 -148 -129 -70 -274 -47 -341 55
-22 33 -23 40 -16 161 8 148 17 190 50 229 48 57 142 80 203 48z m4821 -13
c-36 -46 -107 -83 -159 -82 -29 0 -31 2 -15 9 11 5 37 11 57 15 21 3 57 21 80
40 50 39 56 42 37 18z m1966 -27 c0 -18 -3 -22 -11 -15 -6 5 -11 21 -11 35 0
33 20 15 22 -20z m-680 -11 l50 -14 -82 0 c-55 -1 -83 3 -83 10 0 6 7 9 15 6
8 -4 17 -2 20 3 8 13 19 12 80 -5z m-3025 -9 c0 -2 -9 -6 -20 -9 -11 -3 -18
-1 -14 4 5 9 34 13 34 5z m1336 -37 c19 -22 19 -22 -3 -8 -13 8 -23 17 -23 21
0 12 6 9 26 -13z m187 14 c-7 -2 -19 -2 -25 0 -7 3 -2 5 12 5 14 0 19 -2 13
-5z m1540 0 c-7 -2 -19 -2 -25 0 -7 3 -2 5 12 5 14 0 19 -2 13 -5z m-43 -15
c0 -5 19 -8 43 -7 23 2 51 -3 62 -9 16 -9 -5 -11 -100 -12 -66 0 -127 5 -135
10 -11 7 -5 10 23 10 21 0 36 4 33 8 -2 4 13 8 35 8 21 0 39 -4 39 -8z m-3086
-60 c8 -61 26 -128 67 -252 44 -132 78 -200 153 -308 37 -54 64 -98 60 -98 -5
0 6 -15 22 -32 17 -18 36 -42 43 -53 7 -11 -9 5 -37 35 -28 30 -49 57 -47 60
2 4 -7 18 -21 33 -13 14 -24 30 -24 35 0 5 -11 22 -25 37 -63 75 -169 340
-194 490 -7 39 -14 81 -17 93 -3 13 -1 21 4 18 5 -3 12 -29 16 -58z m1376 27
c13 -14 21 -25 18 -25 -2 0 -15 11 -28 25 -13 14 -21 25 -18 25 2 0 15 -11 28
-25z m-645 -5 c-14 -15 -20 -17 -26 -8 -8 13 7 28 30 28 11 0 10 -5 -4 -20z
m1030 -9 c-3 -6 -10 -9 -14 -7 -4 3 -20 -4 -37 -15 -36 -24 -159 -27 -190 -5
-10 8 -16 17 -12 21 3 4 61 8 127 8 67 1 121 6 121 11 0 5 3 7 6 3 3 -3 3 -11
-1 -16z m1847 -18 c-3 -16 -7 -22 -10 -15 -4 13 4 42 11 42 2 0 2 -12 -1 -27z
m-4345 -60 c-2 -16 -4 -3 -4 27 0 30 2 43 4 28 2 -16 2 -40 0 -55z m6685 44
c6 -9 8 -9 8 1 0 14 36 16 45 2 3 -5 11 -8 18 -6 7 1 8 1 4 -2 -4 -2 -3 -10 4
-18 6 -8 15 -11 20 -8 11 6 29 -38 29 -71 0 -36 -41 -76 -70 -68 -16 4 -21 3
-16 -5 8 -13 -6 -16 -18 -4 -4 4 -11 7 -14 7 -17 1 -52 27 -47 34 2 5 -5 11
-16 14 -12 3 -18 10 -15 15 8 13 -3 42 -16 42 -5 0 -7 -4 -3 -9 3 -5 0 -13 -6
-17 -7 -4 -9 -3 -5 4 3 5 0 12 -6 15 -8 3 -1 9 14 15 19 8 26 16 22 27 -4 9 0
15 10 15 8 0 13 6 10 13 -6 17 38 20 48 4z m-2915 -39 c-3 -8 -6 -5 -6 6 -1
11 2 17 5 13 3 -3 4 -12 1 -19z m140 0 c-3 -8 -6 -5 -6 6 -1 11 2 17 5 13 3
-3 4 -12 1 -19z m-2419 -13 c-3 -3 -9 2 -12 12 -6 14 -5 15 5 6 7 -7 10 -15 7
-18z m2837 -15 c-9 -41 -17 -33 -9 9 4 17 9 30 11 27 3 -2 2 -19 -2 -36z
m-468 -22 c-3 -7 -5 -2 -5 12 0 14 2 19 5 13 2 -7 2 -19 0 -25z m-4029 -37
l72 -22 0 -52 c0 -29 -7 -124 -15 -212 -8 -88 -19 -250 -25 -359 -9 -180 -14
-218 -23 -205 -2 2 -27 55 -56 117 -50 108 -52 114 -36 132 10 11 20 19 24 18
3 -1 14 2 24 7 9 4 26 5 36 2 24 -6 34 36 30 124 -1 32 1 62 4 66 4 3 7 18 6
32 0 14 -3 20 -6 13 -7 -17 -33 4 -33 27 0 13 -2 14 -9 2 -7 -10 -13 -12 -23
-5 -7 6 -25 9 -40 8 -22 -2 -28 1 -28 17 0 16 -3 18 -17 10 -12 -7 -21 -5 -30
7 -7 10 -13 13 -12 7 3 -22 -1 -35 -11 -35 -6 0 -10 6 -9 13 1 6 0 19 -4 27
-3 8 -10 29 -15 45 l-10 30 -10 -25 c-6 -14 -11 -22 -11 -19 -1 4 -10 51 -21
104 -22 105 -24 126 -12 110 9 -14 21 -12 59 8 18 9 39 17 47 17 8 0 22 7 30
16 9 8 16 11 16 5 0 -6 4 -11 10 -11 5 0 7 8 3 18 -5 16 -5 16 8 1 8 -9 47
-26 87 -38z m159 -33 c-2 -18 -4 -6 -4 27 0 33 2 48 4 33 2 -15 2 -42 0 -60z
m3860 20 c-3 -8 -6 -5 -6 6 -1 11 2 17 5 13 3 -3 4 -12 1 -19z m-630 -34 c-9
-9 -28 6 -21 18 4 6 10 6 17 -1 6 -6 8 -13 4 -17z m-3240 -136 c-3 -7 -5 -2
-5 12 0 14 2 19 5 13 2 -7 2 -19 0 -25z m-350 -58 c-3 -21 -17 -40 -17 -22 0
13 11 42 16 42 2 0 3 -9 1 -20z m0 -62 c-3 -8 -6 -5 -6 6 -1 11 2 17 5 13 3
-3 4 -12 1 -19z m2388 -38 c7 0 18 -7 25 -15 7 -8 21 -15 32 -15 11 0 28 -5
38 -10 16 -9 17 -15 8 -40 -5 -17 -13 -30 -17 -30 -4 0 -27 12 -52 28 -24 15
-61 36 -83 47 -45 23 -53 38 -38 70 l11 24 32 -30 c17 -16 37 -29 44 -29z
m-2366 -30 c0 -9 -4 -8 -9 5 -5 11 -9 27 -9 35 0 9 4 8 9 -5 5 -11 9 -27 9
-35z m178 34 c-3 -3 -12 -4 -19 -1 -8 3 -5 6 6 6 11 1 17 -2 13 -5z m2921 -29
c-3 -3 -9 2 -12 12 -6 14 -5 15 5 6 7 -7 10 -15 7 -18z m-2894 -7 c-3 -4 -9
-8 -15 -8 -5 0 -9 4 -9 8 0 5 7 9 15 9 8 0 12 -4 9 -9z m103 -140 c-2 -13 -4
-5 -4 17 -1 22 1 32 4 23 2 -10 2 -28 0 -40z m2098 12 c48 -20 15 -22 -39 -2
-27 9 -51 23 -54 30 -3 10 4 9 30 -2 18 -7 47 -19 63 -26z m2070 -38 c-3 -3
-11 0 -18 7 -9 10 -8 11 6 5 10 -3 15 -9 12 -12z m-465 -45 c0 -2 -10 -12 -22
-23 l-23 -19 19 23 c18 21 26 27 26 19z m-2100 -99 c0 -6 3 -9 6 -5 3 3 38
-12 77 -33 148 -79 282 -132 416 -165 84 -20 124 -34 106 -35 l-30 -3 35 -8
c25 -6 17 -6 -29 -3 -150 12 -335 70 -477 149 -43 24 -62 40 -54 45 9 5 5 12
-11 24 -13 9 -29 16 -35 16 -7 0 -14 7 -18 15 -3 8 -1 15 4 15 6 0 10 -5 10
-12z m2878 -19 c18 -6 30 -14 28 -18 -2 -3 16 -6 40 -7 24 0 50 -6 57 -13 10
-11 8 -12 -12 -6 -28 8 -71 -12 -71 -33 0 -11 -3 -12 -14 -3 -12 10 -14 7 -12
-19 1 -16 1 -30 0 -30 -4 0 -84 127 -84 133 0 10 33 8 68 -4z m-2587 -183 c52
-18 141 -43 198 -55 108 -22 132 -30 90 -32 -13 -1 12 -9 56 -19 91 -20 76
-24 -35 -9 -117 15 -178 19 -155 10 11 -5 23 -7 27 -5 3 2 35 -3 70 -11 35 -8
81 -15 103 -15 28 0 36 -3 25 -9 -8 -6 -17 -8 -20 -6 -3 2 -43 6 -90 9 -88 5
-79 -5 20 -23 l45 -9 -40 -1 c-30 -1 -36 -4 -25 -11 14 -9 -8 -8 -73 5 -9 2
-15 -1 -12 -5 3 -5 30 -14 60 -21 30 -7 55 -16 55 -20 0 -5 6 -6 14 -3 8 3 17
1 21 -5 4 -7 -8 -11 -35 -11 -38 0 -40 -2 -30 -20 6 -11 18 -20 28 -20 9 0 24
-5 32 -11 26 -18 -130 -1 -235 27 -163 42 -354 127 -492 217 -86 56 -96 72
-18 28 30 -17 65 -31 78 -31 13 0 66 -20 118 -44 136 -63 160 -65 44 -4 -120
63 -165 94 -165 114 0 8 3 14 7 14 3 0 52 -24 107 -54 93 -50 271 -114 282
-103 3 3 -12 11 -33 17 -68 22 -133 52 -128 60 2 4 -7 5 -22 2 -15 -3 -23 -1
-20 5 3 5 -28 29 -69 53 -40 24 -84 54 -96 68 -17 18 3 10 82 -31 58 -30 116
-58 130 -61 14 -4 -4 8 -40 26 -101 52 -130 71 -130 85 0 7 -9 13 -19 13 -11
0 -23 4 -26 10 -4 6 1 7 11 3 13 -5 16 -2 12 9 -4 10 32 -5 96 -38 56 -29 145
-69 197 -88z m1074 105 c-15 -12 -143 -61 -162 -61 -14 0 -13 3 5 16 44 31
186 72 157 45z m29 -36 c-4 -8 -10 -15 -15 -15 -5 0 -8 -5 -6 -11 1 -6 -27
-21 -62 -35 -61 -23 -102 -31 -88 -17 4 3 2 12 -4 20 -9 10 -6 13 13 13 13 0
28 4 34 9 10 11 102 48 121 50 7 1 10 -6 7 -14z m52 -60 c-11 -8 -26 -15 -34
-15 -7 0 -11 -4 -8 -9 6 -10 -86 -47 -141 -56 -37 -7 -38 -7 -15 10 12 9 20
20 17 25 -2 4 5 10 18 13 12 3 47 15 77 26 30 11 66 20 80 20 24 0 24 0 6 -14z
m1474 -3 c0 -10 -14 -33 -31 -52 l-31 -35 26 37 c14 20 26 44 26 52 0 9 2 16
5 16 3 0 5 -8 5 -18z m-1410 -82 c0 -13 -23 -18 -45 -10 -13 5 -48 -3 -98 -21
-43 -16 -88 -29 -100 -28 -12 0 7 11 43 23 36 12 76 27 89 33 30 12 111 15
111 3z m-45 -29 c-17 -17 -165 -71 -192 -71 -36 0 -23 10 50 38 99 37 161 52
142 33z m-19 -52 c3 -6 18 -8 33 -5 50 12 -4 -20 -82 -47 -97 -34 -126 -41
-107 -28 10 7 11 11 3 11 -7 0 -13 5 -13 10 0 6 11 10 25 10 14 0 25 5 25 11
0 6 9 9 20 6 11 -3 18 0 17 7 -1 6 6 10 15 10 10 -1 16 2 13 6 -5 7 9 14 37
19 4 0 10 -4 14 -10z m1151 -24 c0 -8 -6 -15 -13 -15 -16 0 -13 -52 3 -72 22
-27 106 -188 117 -222 4 -11 12 -16 21 -12 8 3 15 1 15 -3 0 -14 -75 -24 -112
-16 -33 8 -131 98 -192 178 l-29 38 30 42 c38 53 91 90 120 84 12 -2 20 0 17
4 -3 5 1 9 9 9 7 0 14 -7 14 -15z m203 11 c0 -2 -8 -10 -17 -17 -16 -13 -17
-12 -4 4 13 16 21 21 21 13z m-117 -13 c-7 -2 -19 -2 -25 0 -7 3 -2 5 12 5 14
0 19 -2 13 -5z m67 -13 c18 -12 2 -12 -25 0 -13 6 -15 9 -5 9 8 0 22 -4 30 -9z
m-2073 -56 c-3 -3 -12 -4 -19 -1 -8 3 -5 6 6 6 11 1 17 -2 13 -5z m-1825 -76
c7 -13 12 -32 10 -44 -3 -22 -76 -74 -104 -74 -9 0 -22 -8 -27 -17 -10 -17
-10 -17 -11 0 0 10 7 32 16 48 17 34 82 109 94 109 4 0 14 -10 22 -22z m839
-45 c13 -16 12 -17 -3 -4 -17 13 -22 21 -14 21 2 0 10 -8 17 -17z m2084 -33
c-3 -5 -12 -10 -18 -10 -7 0 -6 4 3 10 19 12 23 12 15 0z m-1883 -55 c12 -3
33 -16 45 -30 25 -27 55 -36 34 -11 -18 21 98 -28 118 -50 15 -18 15 -18 -6 0
-12 10 -26 15 -32 12 -5 -3 -22 -1 -38 5 -15 7 -41 13 -58 14 -16 1 -29 6 -28
11 1 6 -7 11 -18 11 -13 1 -17 -2 -12 -10 4 -7 -1 -6 -10 2 -10 8 -15 16 -12
19 3 3 -12 21 -33 40 -35 32 -35 33 -5 13 18 -12 43 -24 55 -26z m-533 -32 c6
-20 5 -62 -1 -110 -20 -153 -24 -140 72 -199 47 -29 93 -53 103 -53 10 -1 39
16 65 37 l46 37 -29 -36 c-15 -21 -29 -48 -31 -60 -4 -46 -42 -154 -67 -189
-9 -13 -17 -30 -17 -37 0 -7 -3 -13 -6 -13 -15 0 -224 115 -269 147 l-48 35 7
61 c3 34 13 80 21 102 8 22 28 95 46 162 17 68 40 133 50 144 11 12 19 27 19
33 1 19 30 -26 39 -61z m532 -60 c13 -16 12 -17 -3 -4 -17 13 -22 21 -14 21 2
0 10 -8 17 -17z m164 -17 c17 -2 31 -5 33 -6 8 -8 29 -3 37 8 9 11 16 9 38 -8
15 -12 25 -25 22 -30 -6 -10 24 -22 36 -14 5 3 9 1 9 -5 0 -10 20 -18 59 -26
18 -3 20 -1 11 16 -9 15 -15 17 -29 9 -14 -7 -22 -6 -31 5 -7 8 -16 13 -20 10
-4 -2 -16 5 -26 16 -18 20 -18 20 11 14 17 -4 44 -11 60 -15 17 -5 56 -14 88
-20 33 -7 67 -20 78 -31 19 -19 18 -19 -17 -19 -25 0 -35 4 -31 13 3 7 -5 13
-20 13 -20 2 -22 0 -11 -14 11 -13 10 -15 -4 -9 -10 3 -18 2 -18 -3 0 -6 8
-10 18 -11 9 0 33 -2 52 -3 40 -2 60 -12 60 -29 0 -8 -2 -9 -8 -1 -4 6 -14 11
-22 12 -57 2 -173 31 -183 45 -6 8 -10 9 -13 1 -5 -13 -78 -9 -117 5 -35 14
-40 14 -32 0 8 -11 -61 15 -82 32 -21 18 -15 29 10 20 12 -4 31 -7 41 -5 27 4
41 -6 25 -18 -11 -8 -10 -9 3 -4 10 3 20 1 23 -4 4 -6 16 -10 27 -10 21 0 21
0 -2 25 -12 13 -26 22 -31 20 -4 -3 -11 -1 -14 5 -5 8 -11 8 -20 0 -9 -8 -15
-8 -20 0 -3 6 -10 8 -15 5 -5 -3 -24 1 -42 9 -32 15 -32 15 -4 9 23 -5 27 -3
21 8 -7 11 -6 12 6 2 8 -6 28 -14 44 -17z m70 -46 c3 -5 2 -10 -4 -10 -5 0
-13 5 -16 10 -3 6 -2 10 4 10 5 0 13 -4 16 -10z m-2396 -14 c-2 -2 -38 -6 -79
-8 -42 -3 -64 -2 -50 2 25 8 137 13 129 6z m2830 -22 c52 -5 52 -5 42 -23 -5
-8 -14 -10 -22 -5 -17 10 -59 12 -65 2 -7 -11 -40 8 -48 28 -5 13 -2 15 21 9
16 -4 48 -9 72 -11z m-481 -19 c3 -3 -4 -4 -16 -2 -12 2 -24 6 -28 10 -4 3 4
4 16 2 12 -2 25 -7 28 -10z m620 -10 c2 -2 -10 -3 -27 -3 -17 1 -31 5 -31 9 0
7 50 2 58 -6z m-562 -16 c29 -18 35 -18 40 -6 6 16 14 16 71 -2 17 -5 35 -6
39 -3 4 4 4 1 0 -5 -4 -7 -17 -13 -29 -13 -18 0 -19 -2 -7 -10 17 -10 50 14
50 37 0 12 3 12 16 -1 8 -9 24 -16 35 -16 11 0 24 -11 31 -25 13 -30 28 -33
23 -5 -3 16 2 20 26 20 39 0 77 -19 59 -30 -8 -5 -2 -10 17 -15 l28 -7 -24 -9
c-14 -5 -27 -6 -30 -1 -3 4 -19 9 -36 9 -16 1 -55 6 -85 13 -30 6 -68 13 -85
16 -65 9 -95 17 -95 25 0 5 -6 6 -14 3 -8 -3 -17 0 -21 5 -3 6 -11 8 -17 5 -7
-4 -8 -2 -4 4 5 8 0 12 -13 12 -12 0 -21 5 -21 10 0 15 9 13 46 -11z m1787 -4
c12 -5 16 -14 12 -24 -5 -12 -3 -13 6 -4 13 13 42 6 33 -8 -3 -5 -11 -6 -17
-2 -7 4 -6 0 2 -10 12 -15 11 -17 -5 -17 -11 0 -24 -11 -31 -25 -8 -19 -8 -25
0 -25 7 0 -1 -11 -16 -24 -16 -14 -28 -27 -28 -30 3 -25 -1 -36 -14 -36 -8 0
-15 -7 -15 -15 0 -8 -4 -15 -9 -15 -5 0 -12 -13 -16 -30 -4 -16 -10 -29 -13
-29 -4 1 -10 0 -14 -1 -5 -1 -14 -3 -20 -4 -7 -1 -12 -8 -10 -14 1 -7 -4 -20
-13 -28 -8 -9 -15 -12 -15 -7 0 4 -16 9 -35 10 -32 3 -35 1 -41 -32 -4 -21
-12 -35 -21 -35 -10 0 -13 -6 -9 -16 4 -10 0 -15 -12 -13 -38 3 -61 -2 -77
-17 -14 -15 -18 -15 -40 0 -30 20 -41 21 -26 2 9 -11 7 -15 -10 -19 -13 -4
-18 -10 -13 -18 5 -9 1 -11 -14 -7 -19 5 -20 3 -11 -13 5 -11 6 -19 0 -19 -5
0 -12 7 -15 16 -5 13 -9 14 -21 4 -9 -7 -13 -15 -10 -19 3 -3 10 0 14 8 6 9
10 7 14 -8 3 -12 1 -19 -3 -16 -5 3 -12 0 -16 -6 -3 -6 0 -15 7 -20 20 -12 2
-11 -22 1 -13 8 -25 7 -39 0 -24 -13 -26 -7 -4 14 14 15 13 17 -15 22 -17 4
-28 10 -25 15 3 5 -2 6 -10 3 -8 -3 -12 -12 -9 -20 4 -10 -3 -14 -21 -14 -16
0 -26 -6 -26 -15 0 -8 8 -15 17 -15 24 0 12 -8 -20 -14 -23 -4 -27 -1 -27 19
0 28 -49 316 -56 327 -18 28 173 86 242 73 22 -4 50 -22 77 -48 23 -23 35 -33
27 -22 -7 11 15 -8 51 -42 35 -35 69 -63 75 -63 6 0 53 17 105 38 l94 38 5
125 c3 71 10 133 18 146 12 22 26 22 85 -2z m-1798 -35 c0 -1 9 -3 20 -4 11
-2 40 -9 65 -16 25 -7 57 -12 72 -12 15 0 31 -4 34 -10 4 -6 -2 -8 -17 -4 -20
6 -21 5 -7 -4 13 -8 23 -7 37 2 11 7 24 9 28 5 4 -5 1 -12 -7 -17 -8 -6 -10
-10 -4 -10 5 0 15 5 21 11 8 8 17 8 33 -1 12 -7 38 -13 58 -14 20 0 37 -7 40
-15 3 -10 0 -11 -13 -4 -9 6 -28 8 -41 5 -20 -4 -21 -6 -9 -18 7 -8 22 -14 32
-14 15 0 16 2 3 11 -19 12 54 3 78 -10 12 -7 6 -9 -21 -10 -60 -2 -67 -4 -67
-13 0 -5 -27 -8 -59 -6 -32 2 -57 6 -54 11 5 8 -1 10 -72 25 -27 6 -63 13 -78
17 -15 3 -25 10 -22 15 3 6 15 6 31 0 33 -13 54 -13 34 0 -9 6 -10 10 -3 10 7
0 16 -7 21 -15 5 -11 32 -18 81 -24 62 -6 71 -5 55 6 -10 7 -26 11 -36 8 -23
-8 -88 5 -88 16 0 5 12 7 28 4 22 -5 20 -2 -12 14 -22 12 -42 19 -44 16 -3 -3
1 -5 9 -6 17 -1 -20 -17 -41 -18 -12 -1 -12 1 -2 8 11 7 10 9 -3 14 -9 4 -13
3 -10 -3 3 -6 -1 -10 -9 -10 -9 0 -16 5 -16 10 0 6 -7 10 -15 10 -8 0 -15 4
-15 9 0 5 10 7 23 4 12 -3 19 -3 16 0 -3 4 -23 9 -44 12 -21 2 -43 9 -49 15
-7 7 -3 9 14 6 14 -2 25 -5 25 -6z m469 -7 c44 -22 45 -28 5 -31 -39 -3 -71 6
-64 19 4 5 -1 9 -10 9 -9 0 -13 5 -10 10 9 15 40 12 79 -7z m216 7 c0 -5 -2
-10 -4 -10 -3 0 -8 5 -11 10 -3 6 -1 10 4 10 6 0 11 -4 11 -10z m-119 -37 c13
-16 12 -17 -3 -4 -17 13 -22 21 -14 21 2 0 10 -8 17 -17z m1424 -116 c5 -54 1
-48 -10 15 -3 22 -11 37 -18 35 -8 -1 -12 14 -13 43 l-1 45 19 -43 c10 -23 21
-66 23 -95z m-1995 113 c0 -5 -2 -10 -4 -10 -3 0 -8 5 -11 10 -3 6 -1 10 4 10
6 0 11 -4 11 -10z m434 -59 c3 -4 -6 -6 -19 -3 -14 2 -25 6 -25 8 0 8 39 4 44
-5z m53 -33 c-3 -8 -6 -5 -6 6 -1 11 2 17 5 13 3 -3 4 -12 1 -19z m-455 -5
c-10 -4 -10 -8 -1 -19 18 -22 4 -17 -16 6 -18 19 -17 20 6 19 13 0 18 -3 11
-6z m178 -2 c0 -5 -9 -7 -20 -4 -11 3 -20 7 -20 9 0 2 9 4 20 4 11 0 20 -4 20
-9z m-2497 -16 c-3 -9 -8 -14 -10 -11 -3 3 -2 9 2 15 9 16 15 13 8 -4z m2480
-1 c26 -4 47 -10 47 -14 0 -4 12 -5 28 -2 25 4 26 3 10 -13 -15 -16 -23 -17
-78 -6 -82 16 -86 9 -8 -13 51 -14 60 -19 45 -27 -14 -8 -55 -6 -117 6 -25 5
-47 18 -57 34 -11 17 -9 18 25 10 l37 -8 -29 26 -30 25 40 -6 c21 -3 60 -9 87
-12z m-143 -44 c8 -5 11 -10 5 -10 -5 0 -17 5 -25 10 -8 5 -10 10 -5 10 6 0
17 -5 25 -10z m-57 -40 c-3 -11 -7 -20 -9 -20 -2 0 -4 9 -4 20 0 11 4 20 9 20
5 0 7 -9 4 -20z m117 1 c19 -1 22 -3 10 -10 -10 -7 -2 -13 33 -22 47 -11 65
-23 50 -32 -11 -7 -129 31 -164 52 l-29 18 38 -3 c20 -1 48 -2 62 -3z m63 -18
c-7 -2 -19 -2 -25 0 -7 3 -2 5 12 5 14 0 19 -2 13 -5z m479 -98 c33 -72 38
-112 17 -126 -10 -6 -10 -9 -2 -9 7 0 10 -7 7 -15 -4 -8 -11 -12 -17 -8 -6 4
-7 1 -1 -8 4 -8 9 -24 10 -37 0 -12 8 -30 17 -40 29 -32 19 -37 -13 -7 -32 30
-54 106 -65 225 -3 36 -8 81 -11 100 -5 34 -5 35 11 13 9 -13 30 -52 47 -88z
m-3022 71 c0 -2 -8 -10 -17 -17 -16 -13 -17 -12 -4 4 13 16 21 21 21 13z
m2532 -31 c26 -7 27 -7 8 -27 -15 -16 -22 -18 -39 -9 -12 7 -21 9 -21 6 0 -3
-15 1 -32 8 -18 8 -40 12 -48 10 -12 -4 -12 -3 -2 5 7 5 24 7 36 5 13 -3 27 0
31 6 4 7 14 10 23 7 10 -3 29 -8 44 -11z m-152 -5 c0 -5 -2 -10 -4 -10 -3 0
-8 5 -11 10 -3 6 -1 10 4 10 6 0 11 -4 11 -10z m83 -65 c42 -9 77 -22 77 -29
0 -6 -9 -29 -19 -52 -35 -77 -150 -139 -152 -81 0 12 -2 31 -4 41 -3 18 -8
120 -6 140 1 4 7 6 14 3 7 -2 47 -12 90 -22z m1547 -75 c-8 -5 -19 -10 -25
-10 -5 0 -3 5 5 10 8 5 20 10 25 10 6 0 3 -5 -5 -10z m1637 -18 c30 -11 65
-35 83 -55 18 -21 51 -42 82 -54 63 -22 150 -104 263 -248 44 -55 131 -160
195 -234 187 -217 200 -234 222 -276 22 -42 84 -125 104 -137 7 -5 49 -50 94
-100 46 -51 115 -127 154 -168 67 -70 176 -203 176 -215 0 -14 -84 -3 -108 15
-35 26 -158 69 -197 70 -16 0 -50 14 -73 30 -63 42 -148 72 -219 78 -35 2 -63
8 -63 13 0 26 -168 99 -228 99 -18 0 -38 10 -53 26 -13 14 -37 34 -54 44 -16
10 -68 67 -115 125 -47 58 -116 144 -155 189 -38 46 -82 98 -96 117 -15 19
-74 95 -131 169 -58 74 -131 160 -163 190 -56 53 -129 126 -162 163 -15 16
-15 17 3 17 30 0 152 -62 213 -109 63 -47 58 -48 157 43 l72 65 -46 87 c-49
96 -51 93 45 56z m-1822 -42 c3 -5 1 -10 -4 -10 -6 0 -11 5 -11 10 0 6 2 10 4
10 3 0 8 -4 11 -10z m-28 -16 c-3 -3 -12 -4 -19 -1 -8 3 -5 6 6 6 11 1 17 -2
13 -5z m-162 -14 c3 -5 1 -10 -4 -10 -6 0 -11 5 -11 10 0 6 2 10 4 10 3 0 8
-4 11 -10z m95 -4 c0 -7 -142 -37 -147 -32 -3 2 24 11 59 19 68 17 88 19 88
13z m-2484 -472 c3 -25 -1 -84 -11 -144 -18 -109 -15 -150 13 -150 9 -1 33
-10 52 -21 19 -11 25 -17 13 -14 -16 4 -23 0 -28 -16 -4 -12 -2 -26 5 -33 10
-8 11 -8 5 3 -4 8 -2 17 6 22 19 12 29 11 29 -2 0 -5 -4 -8 -9 -4 -5 3 -12 1
-16 -5 -3 -5 0 -10 7 -10 7 -1 4 -6 -8 -13 -12 -7 -19 -18 -17 -24 3 -7 -3
-13 -12 -13 -12 0 -16 -6 -12 -20 6 -25 3 -25 -42 2 -58 35 -62 45 -56 118 3
36 7 76 10 90 3 14 9 41 12 60 3 19 9 37 13 40 4 3 4 28 1 57 -4 28 -3 62 2
75 4 12 9 36 9 52 1 26 2 27 14 11 7 -10 16 -37 20 -61z m124 -344 c8 -5 11
-10 5 -10 -5 0 -17 5 -25 10 -8 5 -10 10 -5 10 6 0 17 -5 25 -10z m4857 -426
c-9 -9 -28 6 -21 18 4 6 10 6 17 -1 6 -6 8 -13 4 -17z m-5163 -72 c9 -15 -36
-132 -50 -132 -18 0 -18 14 2 70 9 25 18 51 20 58 4 14 20 16 28 4z m5456 -17
c7 -9 11 -18 8 -21 -8 -7 -58 14 -58 26 0 15 36 12 50 -5z m286 -109 c10 -8
16 -17 12 -21 -8 -8 -75 13 -83 26 -10 15 49 10 71 -5z m294 -107 c0 -9 -15
-13 -40 -9 -20 3 -23 7 -16 18 7 11 56 3 56 -9z"/>
<path d="M4921 7534 c12 -14 59 -15 59 -2 0 6 7 5 15 -2 12 -10 15 -9 15 4 0
13 -9 16 -49 14 -35 -2 -47 -6 -40 -14z"/>
<path d="M4898 7426 c-19 -14 -23 -26 -10 -26 4 0 13 9 20 20 14 23 13 24 -10
6z"/>
<path d="M5070 7461 c0 -5 5 -13 10 -16 6 -3 10 -2 10 4 0 5 -4 13 -10 16 -5
3 -10 2 -10 -4z"/>
<path d="M5165 7330 c-3 -5 -1 -10 4 -10 6 0 11 5 11 10 0 6 -2 10 -4 10 -3 0
-8 -4 -11 -10z"/>
<path d="M4045 7300 c-8 -13 15 -13 35 0 12 8 11 10 -7 10 -12 0 -25 -4 -28
-10z"/>
<path d="M4055 7230 c-8 -13 15 -24 27 -12 6 6 4 11 -6 15 -8 3 -18 2 -21 -3z"/>
<path d="M4195 7231 c-9 -15 8 -35 24 -30 8 3 7 10 -2 23 -10 14 -16 16 -22 7z"/>
<path d="M4666 7221 c-4 -5 0 -12 6 -15 7 -4 2 -4 -11 -2 -13 3 -20 1 -15 -4
5 -4 18 -10 29 -12 11 -2 -13 -10 -54 -17 -44 -8 -76 -10 -80 -4 -3 5 -17 6
-31 2 -21 -6 -22 -7 -5 -9 17 -2 16 -3 -5 -9 -14 -5 -49 -6 -79 -3 -43 4 -53
2 -49 -9 5 -15 41 -17 116 -7 24 4 40 2 36 -3 -9 -15 33 -10 46 6 6 7 33 17
58 21 26 4 57 10 69 15 13 5 48 9 78 10 30 1 52 5 50 9 -3 5 2 10 10 13 9 4
12 1 9 -8 -4 -8 0 -13 10 -11 24 3 28 12 12 26 -11 8 -29 9 -58 4 -24 -4 -49
-7 -55 -5 -7 1 -13 -4 -13 -11 0 -8 -3 -9 -8 -3 -7 10 -48 35 -56 35 -3 0 -7
-4 -10 -9z"/>
<path d="M4935 7221 c-7 -13 3 -18 47 -25 20 -3 40 -1 43 4 3 6 -5 10 -19 10
-14 0 -28 5 -31 10 -8 13 -32 13 -40 1z"/>
<path d="M3976 7169 c3 -5 -4 -9 -16 -9 -12 0 -19 -4 -15 -9 3 -5 -5 -11 -17
-13 -16 -3 -8 -7 23 -12 30 -5 54 -4 67 3 18 10 112 5 112 -6 0 -2 -5 -14 -11
-26 -9 -20 -9 -20 4 -5 13 16 15 16 32 0 19 -17 19 -17 1 6 -25 29 -18 34 43
34 58 0 71 -6 71 -35 0 -17 2 -19 9 -8 6 9 6 22 0 33 -9 16 -5 17 33 14 24 -2
34 -2 23 1 -11 2 -29 8 -40 13 -36 15 -65 18 -72 8 -4 -7 -1 -8 8 -3 10 6 11
5 3 -4 -8 -9 -17 -9 -37 0 -21 9 -30 9 -42 -1 -13 -11 -14 -10 -9 4 5 12 2 15
-10 10 -9 -3 -16 -1 -16 5 0 6 -8 11 -17 11 -15 0 -16 -2 -4 -9 28 -18 -31
-23 -81 -7 -27 8 -45 10 -42 5z m29 -19 c3 -5 2 -10 -4 -10 -5 0 -13 5 -16 10
-3 6 -2 10 4 10 5 0 13 -4 16 -10z"/>
<path d="M4360 7160 c0 -5 7 -7 15 -4 8 4 15 8 15 10 0 2 -7 4 -15 4 -8 0 -15
-4 -15 -10z"/>
<path d="M4918 7163 c7 -3 16 -2 19 1 4 3 -2 6 -13 5 -11 0 -14 -3 -6 -6z"/>
<path d="M4005 7110 c-3 -5 -2 -10 4 -10 6 0 8 -7 5 -15 -4 -9 0 -15 9 -15 10
0 13 7 10 20 -7 25 -19 34 -28 20z"/>
<path d="M4393 7099 c9 -6 14 -15 11 -21 -4 -7 -2 -8 5 -4 14 9 -3 36 -23 36
-6 0 -3 -5 7 -11z"/>
<path d="M5578 7203 c7 -3 16 -2 19 1 4 3 -2 6 -13 5 -11 0 -14 -3 -6 -6z"/>
<path d="M4989 7108 c-8 -26 -5 -36 8 -31 11 4 12 8 3 13 -9 6 -9 9 1 13 10 4
10 6 2 6 -7 1 -13 0 -14 -1z"/>
<path d="M4880 7080 c8 -5 20 -10 25 -10 6 0 3 5 -5 10 -8 5 -19 10 -25 10 -5
0 -3 -5 5 -10z"/>
<path d="M4788 7063 c7 -3 16 -2 19 1 4 3 -2 6 -13 5 -11 0 -14 -3 -6 -6z"/>
<path d="M4363 7003 c9 -2 23 -2 30 0 6 3 -1 5 -18 5 -16 0 -22 -2 -12 -5z"/>
<path d="M4161 6971 c-23 -6 -23 -7 12 -18 35 -11 47 -8 47 9 0 5 -10 6 -21 3
-15 -5 -19 -4 -15 4 4 6 6 11 4 10 -2 -1 -14 -4 -27 -8z"/>
<path d="M4297 6966 c-6 -15 19 -50 27 -37 3 5 0 12 -6 14 -10 4 -10 7 0 15
11 8 11 10 -1 15 -9 3 -17 0 -20 -7z"/>
<path d="M4085 6961 c-3 -5 -2 -12 3 -15 5 -3 9 1 9 9 0 17 -3 19 -12 6z"/>
<path d="M3917 6932 c-20 -2 -35 -8 -32 -13 4 -5 11 -7 16 -3 6 3 21 -4 35
-17 13 -12 24 -19 24 -15 0 5 6 3 14 -3 10 -9 16 -7 27 5 10 13 10 17 0 24 -8
4 4 8 30 8 27 1 38 -2 30 -8 -10 -6 -8 -10 10 -16 34 -11 59 -12 65 -2 5 7
-10 12 -28 9 -5 0 -8 4 -8 9 0 13 17 12 64 -5 43 -15 100 -10 89 9 -4 6 2 4
12 -4 15 -12 17 -12 10 -1 -6 11 -4 13 8 8 10 -3 17 -2 17 3 0 6 -17 10 -37
10 -21 1 -99 2 -173 3 -74 1 -152 1 -173 -1z m280 -18 c-3 -3 -12 -4 -19 -1
-8 3 -5 6 6 6 11 1 17 -2 13 -5z"/>
<path d="M3380 6874 c-23 -14 -23 -14 -2 -9 13 4 22 2 22 -4 0 -6 -5 -11 -11
-11 -5 0 -7 -5 -3 -11 11 -18 38 16 28 34 -8 14 -12 14 -34 1z"/>
<path d="M4096 6855 c4 -8 12 -15 20 -15 20 0 17 7 -6 20 -16 9 -18 8 -14 -5z"/>
<path d="M3840 6843 c0 -7 4 -13 9 -13 5 0 11 6 14 13 3 8 -1 14 -9 14 -8 0
-14 -6 -14 -14z"/>
<path d="M3290 6810 c-8 -5 -12 -12 -9 -15 4 -3 12 1 19 10 14 17 11 19 -10 5z"/>
<path d="M3398 6763 c7 -3 16 -2 19 1 4 3 -2 6 -13 5 -11 0 -14 -3 -6 -6z"/>
<path d="M5254 7082 c3 -5 19 -9 37 -10 39 -1 34 5 -10 13 -18 3 -30 2 -27 -3z"/>
<path d="M5352 7064 c3 -3 27 -7 53 -9 26 -2 45 -1 41 2 -3 3 -26 7 -52 9 -26
2 -45 1 -42 -2z"/>
<path d="M5470 7050 c18 -12 30 -13 30 -2 0 4 -10 9 -22 9 -18 2 -20 0 -8 -7z"/>
<path d="M5525 7040 c28 -12 37 -12 30 0 -3 6 -16 10 -28 9 -21 0 -21 -1 -2
-9z"/>
<path d="M4015 6790 c-4 -6 3 -10 14 -10 25 0 27 6 6 13 -8 4 -17 2 -20 -3z"/>
<path d="M3620 6771 c0 -5 -8 -8 -18 -6 -12 2 -18 -3 -18 -15 0 -18 1 -18 54
16 2 1 -1 5 -7 9 -6 3 -11 2 -11 -4z"/>
<path d="M3730 6761 c0 -5 7 -11 15 -15 8 -3 15 -1 15 3 0 5 -7 11 -15 15 -8
3 -15 1 -15 -3z"/>
<path d="M3867 6753 c7 -17 20 -17 26 1 4 10 0 14 -12 13 -11 -1 -17 -7 -14
-14z"/>
<path d="M3670 6661 c0 -6 4 -13 10 -16 6 -3 7 1 4 9 -7 18 -14 21 -14 7z"/>
<path d="M3657 6626 c-3 -8 1 -17 8 -20 20 -7 28 9 11 23 -10 9 -15 8 -19 -3z"/>
<path d="M4937 6631 c-26 -17 -27 -19 -9 -23 11 -3 26 -2 33 3 8 5 34 9 59 8
86 -2 245 4 223 8 -13 2 -23 9 -23 14 0 5 -55 9 -127 9 -108 0 -132 -3 -156
-19z m171 2 c-10 -2 -28 -2 -40 0 -13 2 -5 4 17 4 22 1 32 -1 23 -4z"/>
<path d="M5238 6643 c7 -3 16 -2 19 1 4 3 -2 6 -13 5 -11 0 -14 -3 -6 -6z"/>
<path d="M4445 6514 c-22 -8 -53 -27 -70 -42 -39 -36 -92 -72 -104 -72 -20 0
0 -25 29 -38 17 -8 28 -18 24 -23 -3 -5 0 -9 7 -9 17 0 5 -11 -15 -14 -9 -1
-15 -6 -14 -12 2 -5 7 -8 11 -6 17 5 67 46 62 50 -2 3 -13 -1 -22 -9 -10 -7
-7 -1 6 14 26 29 50 34 69 15 9 -9 8 -16 -5 -30 -9 -10 -20 -18 -24 -18 -5 0
-24 -11 -43 -24 -25 -17 -32 -26 -22 -29 8 -3 20 1 27 9 15 19 83 54 102 54 8
0 25 9 38 19 22 18 23 20 6 27 -17 6 -16 9 10 31 17 15 21 22 11 19 -30 -9
-20 2 20 23 l37 20 -38 -6 c-31 -5 -36 -3 -32 10 4 8 2 18 -4 21 -6 4 -8 13
-4 21 6 18 -10 18 -62 -1z m-71 -86 c-5 -7 -2 -9 8 -6 8 4 15 0 15 -8 0 -7 -4
-11 -8 -8 -4 2 -10 -4 -14 -15 -6 -21 -31 -34 -46 -25 -5 3 -7 10 -3 15 3 5 9
7 14 4 5 -3 14 4 20 15 8 14 8 20 0 20 -6 0 -8 5 -5 10 3 6 11 10 16 10 6 0 7
-5 3 -12z"/>
<path d="M4990 6510 c-25 -3 29 -4 120 -2 91 3 167 6 169 8 7 6 -241 1 -289
-6z"/>
<path d="M4893 6493 c9 -2 23 -2 30 0 6 3 -1 5 -18 5 -16 0 -22 -2 -12 -5z"/>
<path d="M4618 6483 c7 -3 16 -2 19 1 4 3 -2 6 -13 5 -11 0 -14 -3 -6 -6z"/>
<path d="M4838 6483 c6 -2 18 -2 25 0 6 3 1 5 -13 5 -14 0 -19 -2 -12 -5z"/>
<path d="M4798 6473 c7 -3 16 -2 19 1 4 3 -2 6 -13 5 -11 0 -14 -3 -6 -6z"/>
<path d="M4758 6463 c7 -3 16 -2 19 1 4 3 -2 6 -13 5 -11 0 -14 -3 -6 -6z"/>
<path d="M5015 6465 c-5 -2 -36 -6 -68 -10 -32 -4 -57 -9 -54 -11 2 -2 44 0
94 5 86 9 305 0 383 -15 19 -4 32 -4 28 0 -18 20 -339 46 -383 31z"/>
<path d="M4560 6440 c-18 -12 -2 -12 25 0 13 6 15 9 5 9 -8 0 -22 -4 -30 -9z"/>
<path d="M4655 6440 c-16 -7 -17 -9 -3 -9 9 -1 20 4 23 9 7 11 7 11 -20 0z"/>
<path d="M4833 6433 c9 -2 25 -2 35 0 9 3 1 5 -18 5 -19 0 -27 -2 -17 -5z"/>
<path d="M4788 6423 c7 -3 16 -2 19 1 4 3 -2 6 -13 5 -11 0 -14 -3 -6 -6z"/>
<path d="M4720 6410 c-20 -6 -21 -8 -5 -8 11 0 29 3 40 8 25 11 -1 11 -35 0z"/>
<path d="M5053 6403 c31 -2 83 -2 115 0 31 2 5 3 -58 3 -63 0 -89 -1 -57 -3z"/>
<path d="M4918 6393 c6 -2 18 -2 25 0 6 3 1 5 -13 5 -14 0 -19 -2 -12 -5z"/>
<path d="M5298 6393 c6 -2 18 -2 25 0 6 3 1 5 -13 5 -14 0 -19 -2 -12 -5z"/>
<path d="M4868 6383 c7 -3 16 -2 19 1 4 3 -2 6 -13 5 -11 0 -14 -3 -6 -6z"/>
<path d="M5098 6383 c23 -2 61 -2 85 0 23 2 4 4 -43 4 -47 0 -66 -2 -42 -4z"/>
<path d="M4395 6360 c-3 -6 1 -7 9 -4 18 7 21 14 7 14 -6 0 -13 -4 -16 -10z"/>
<path d="M4768 6363 c7 -3 16 -2 19 1 4 3 -2 6 -13 5 -11 0 -14 -3 -6 -6z"/>
<path d="M4149 6193 c-13 -16 -12 -17 4 -4 9 7 17 15 17 17 0 8 -8 3 -21 -13z"/>
<path d="M4299 6193 c-13 -16 -12 -17 4 -4 16 13 21 21 13 21 -2 0 -10 -8 -17
-17z"/>
<path d="M4535 6190 c-3 -5 -1 -10 5 -10 6 0 8 -4 5 -10 -3 -6 1 -7 9 -4 9 3
16 12 16 20 0 16 -26 19 -35 4z"/>
<path d="M4189 6173 c-13 -16 -12 -17 4 -4 9 7 17 15 17 17 0 8 -8 3 -21 -13z"/>
<path d="M4259 6163 c-13 -16 -12 -17 4 -4 9 7 17 15 17 17 0 8 -8 3 -21 -13z"/>
<path d="M4074 6128 l-19 -23 23 19 c21 18 27 26 19 26 -2 0 -12 -10 -23 -22z"/>
<path d="M3939 6123 c-13 -16 -12 -17 4 -4 9 7 17 15 17 17 0 8 -8 3 -21 -13z"/>
<path d="M4109 6103 c-13 -16 -12 -17 4 -4 9 7 17 15 17 17 0 8 -8 3 -21 -13z"/>
<path d="M4054 6058 l-29 -33 33 29 c30 28 37 36 29 36 -2 0 -16 -15 -33 -32z"/>
<path d="M3990 6049 c0 -5 5 -7 10 -4 6 3 10 8 10 11 0 2 -4 4 -10 4 -5 0 -10
-5 -10 -11z"/>
<path d="M4019 5943 c-13 -16 -12 -17 4 -4 16 13 21 21 13 21 -2 0 -10 -8 -17
-17z"/>
<path d="M3989 5903 c-13 -16 -12 -17 4 -4 16 13 21 21 13 21 -2 0 -10 -8 -17
-17z"/>
<path d="M3823 5898 c-15 -20 -25 -38 -20 -38 3 0 12 11 21 25 17 26 16 35 -1
13z"/>
<path d="M3949 5853 c-13 -16 -12 -17 4 -4 9 7 17 15 17 17 0 8 -8 3 -21 -13z"/>
<path d="M3920 5815 c-7 -9 -11 -17 -9 -20 3 -2 10 5 17 15 14 24 10 26 -8 5z"/>
<path d="M3090 6371 c0 -22 -3 -47 -6 -56 -10 -26 -24 3 -18 40 4 29 4 29 -6
5 -22 -49 -31 -122 -18 -138 10 -13 10 -14 1 -8 -15 9 -18 -34 -4 -49 5 -6 11
-19 14 -30 3 -12 3 -10 2 5 -1 14 -6 34 -10 44 -6 14 -5 17 4 12 6 -4 11 -4
10 1 -1 4 -1 22 1 38 1 26 3 27 10 10 8 -18 9 -18 10 5 l2 25 8 -25 c5 -16 8
8 8 68 1 50 -1 92 -3 92 -3 0 -5 -18 -5 -39z"/>
<path d="M3090 6141 c0 -6 4 -13 10 -16 6 -3 7 1 4 9 -7 18 -14 21 -14 7z"/>
<path d="M3059 6088 c-1 -29 -9 -95 -14 -118 -4 -20 -3 -22 5 -8 12 19 26 138
16 138 -3 0 -6 -6 -7 -12z"/>
<path d="M3090 5951 c0 -6 4 -13 10 -16 6 -3 7 1 4 9 -7 18 -14 21 -14 7z"/>
<path d="M2951 5934 c0 -11 3 -14 6 -6 3 7 2 16 -1 19 -3 4 -6 -2 -5 -13z"/>
<path d="M3694 5666 c-3 -9 -10 -14 -14 -11 -5 3 -12 0 -16 -6 -4 -8 -3 -9 4
-5 15 9 16 -18 1 -45 -6 -11 -8 -25 -6 -32 2 -7 10 8 17 33 8 25 18 51 23 58
5 7 7 15 4 19 -4 3 -9 -2 -13 -11z"/>
<path d="M3640 5540 c0 -5 5 -10 10 -10 6 0 10 5 10 10 0 6 -4 10 -10 10 -5 0
-10 -4 -10 -10z"/>
<path d="M5628 4893 c7 -3 16 -2 19 1 4 3 -2 6 -13 5 -11 0 -14 -3 -6 -6z"/>
<path d="M7220 3870 c0 -5 5 -10 10 -10 6 0 10 5 10 10 0 6 -4 10 -10 10 -5 0
-10 -4 -10 -10z"/>
<path d="M4700 3576 c0 -22 15 -27 61 -20 l43 7 -50 13 c-27 7 -50 13 -51 14
-2 0 -3 -6 -3 -14z"/>
<path d="M4690 3535 c0 -8 -6 -15 -12 -15 -9 0 -8 -4 2 -10 23 -15 30 -12 30
15 0 14 -4 25 -10 25 -5 0 -10 -7 -10 -15z"/>
<path d="M5905 2660 c3 -5 8 -10 11 -10 2 0 4 5 4 10 0 6 -5 10 -11 10 -5 0
-7 -4 -4 -10z"/>
<path d="M4688 2853 c6 -2 18 -2 25 0 6 3 1 5 -13 5 -14 0 -19 -2 -12 -5z"/>
<path d="M4490 2740 c8 -5 20 -10 25 -10 6 0 3 5 -5 10 -8 5 -19 10 -25 10 -5
0 -3 -5 5 -10z"/>
<path d="M4515 2670 c-4 -6 -5 -10 -3 -11 25 -6 38 -6 38 1 0 12 -29 20 -35
10z"/>
<path d="M4566 2653 c-6 -14 -5 -15 5 -6 7 7 10 15 7 18 -3 3 -9 -2 -12 -12z"/>
<path d="M7447 10233 c-35 -63 -27 -503 9 -503 7 0 16 10 20 22 10 32 31 76
68 143 18 33 57 106 85 163 29 57 61 112 71 122 10 10 23 28 30 39 11 21 9 21
-134 21 -80 0 -147 -3 -149 -7z"/>
<path d="M1685 3630 c3 -5 1 -10 -4 -10 -6 0 -11 -7 -11 -15 0 -8 -5 -15 -11
-15 -8 0 -8 -5 1 -15 15 -18 25 -19 42 -2 7 6 19 12 26 13 63 5 60 2 29 29
-27 24 -85 36 -72 15z"/>
<path d="M9483 26 c-4 -7 -15 -16 -23 -19 -8 -3 27 -6 78 -6 75 -1 92 2 92 14
0 18 -12 19 -27 4 -7 -7 -19 -8 -30 -4 -10 5 -23 7 -30 6 -6 -1 -14 3 -18 9
-9 14 -33 12 -42 -4z"/>
</g>
</svg>
