<?xml version="1.0" standalone="no"?>
<!DOCTYPE svg PUBLIC "-//W3C//DTD SVG 20010904//EN"
 "http://www.w3.org/TR/2001/REC-SVG-20010904/DTD/svg10.dtd">
<svg version="1.0" xmlns="http://www.w3.org/2000/svg"
 width="1024.000000pt" height="1024.000000pt" viewBox="0 0 1024.000000 1024.000000"
 preserveAspectRatio="xMidYMid meet">

<g transform="translate(0.000000,1024.000000) scale(0.100000,-0.100000)"
fill="#000000" stroke="none">
<path d="M6925 8116 c-153 -36 -257 -96 -360 -209 -69 -76 -75 -87 -156 -267
-59 -130 -188 -400 -487 -1020 -292 -606 -811 -1688 -862 -1797 -24 -51 -47
-93 -52 -93 -8 0 -166 315 -468 935 -54 110 -191 389 -305 620 -410 830 -548
1112 -607 1240 -51 113 -67 138 -120 189 -132 126 -233 170 -419 181 -103 6
-120 5 -171 -15 -72 -27 -158 -103 -187 -166 -38 -81 -46 -145 -27 -221 19
-79 48 -125 127 -208 68 -71 99 -136 106 -222 5 -57 3 -68 -41 -160 -56 -120
-58 -158 -17 -277 67 -193 87 -219 209 -278 63 -30 90 -49 113 -81 59 -80 79
-132 89 -230 14 -142 48 -221 131 -313 55 -61 109 -163 109 -206 0 -15 -7 -57
-16 -95 -30 -126 -1 -239 86 -336 31 -35 67 -60 136 -93 127 -62 193 -142 194
-235 1 -128 57 -255 167 -372 67 -72 90 -108 163 -248 47 -90 99 -185 117
-211 97 -145 124 -423 62 -633 -36 -122 -136 -296 -276 -482 -57 -75 -63 -111
-63 -389 0 -174 4 -270 12 -298 10 -32 53 -83 207 -241 106 -110 210 -209 230
-220 35 -19 55 -20 522 -20 l485 0 40 26 c49 33 395 400 411 437 19 42 18 566
-1 621 -8 22 -55 91 -103 153 -165 212 -235 335 -274 486 -27 104 -26 138 6
194 41 73 97 115 192 145 138 43 224 27 353 -66 77 -56 143 -74 244 -69 398
21 507 538 153 729 -60 33 -66 34 -172 34 -101 0 -114 -2 -165 -28 -34 -18
-87 -62 -140 -117 -78 -81 -90 -90 -154 -109 -37 -12 -90 -21 -117 -21 l-48 0
51 88 c28 48 65 111 82 141 17 29 58 75 90 103 114 95 168 191 190 333 22 152
57 198 201 266 190 90 269 234 231 419 -29 139 -19 176 87 301 96 113 128 179
143 299 16 128 75 193 229 251 83 31 118 68 170 176 93 195 99 241 47 353 -40
86 -37 173 10 273 29 61 52 91 109 145 155 145 221 318 185 489 -38 185 -173
339 -349 400 -89 31 -241 40 -332 19z m263 -132 c12 -4 22 -13 22 -21 0 -25
63 -74 87 -68 18 4 26 -1 39 -26 12 -25 13 -33 3 -39 -10 -7 -9 -18 5 -54 10
-25 22 -46 27 -46 14 0 11 -58 -4 -67 -24 -14 -49 -62 -43 -80 9 -23 -50 -83
-83 -83 -43 0 -70 -11 -76 -31 -9 -28 -90 -27 -105 0 -7 15 -23 21 -57 23 -43
3 -47 5 -55 35 -5 19 -23 43 -42 58 -42 32 -63 82 -42 99 18 14 30 82 16 91
-21 13 -8 42 35 78 25 21 45 47 45 57 0 11 12 27 26 37 21 13 30 14 45 4 27
-16 87 -4 100 20 10 20 20 22 57 13z m-612 -314 c-8 -51 -53 -148 -480 -1034
-47 -98 -86 -179 -86 -181 0 -1 -50 -105 -111 -231 -355 -731 -603 -1251 -844
-1769 l-37 -80 -215 435 c-227 459 -369 748 -513 1045 -48 99 -181 369 -295
600 -478 968 -495 1004 -495 1050 0 49 15 68 24 31 6 -24 119 -256 491 -1011
108 -220 291 -591 405 -825 427 -873 590 -1203 594 -1199 2 2 52 108 111 234
59 127 160 340 225 475 65 135 143 299 175 365 32 66 86 179 120 250 91 190
277 577 485 1010 190 395 338 707 397 835 30 64 36 72 45 56 6 -10 7 -35 4
-56z m-3503 36 c52 -22 79 -59 85 -114 4 -42 1 -52 -22 -78 l-26 -29 11 33
c13 38 6 96 -13 119 -26 32 -73 44 -114 30 -79 -26 -104 -119 -48 -178 32 -33
19 -39 -19 -8 -52 40 -57 149 -10 192 51 45 102 56 156 33z m175 -886 c31 -19
63 -72 62 -102 -1 -7 -7 1 -14 17 -32 74 -171 72 -205 -2 -18 -39 -13 -78 15
-118 26 -38 26 -39 2 -23 -43 28 -70 79 -65 121 14 103 121 158 205 107z
m3842 -105 c39 -38 41 -64 3 -37 -90 63 -193 11 -193 -98 0 -19 9 -40 25 -55
25 -26 18 -33 -16 -15 -49 27 -62 119 -24 176 45 70 148 84 205 29z m-446
-766 c17 -25 12 -45 -15 -60 -26 -14 -59 5 -59 34 0 47 48 63 74 26z m-3084
-9 c15 -29 3 -59 -26 -66 -30 -8 -54 11 -54 40 0 46 59 64 80 26z m2839 -519
c18 -10 51 -59 51 -76 0 -3 -19 8 -42 25 -57 42 -99 41 -144 -4 -44 -44 -46
-93 -8 -144 l27 -34 -24 12 c-40 21 -58 41 -64 72 -27 121 92 208 204 149z
m-2519 4 c26 -13 50 -42 50 -59 0 -3 -15 3 -32 14 -57 35 -127 20 -154 -31
-29 -57 -8 -149 33 -149 9 0 14 -3 10 -6 -3 -4 -18 -3 -32 0 -37 9 -65 61 -65
120 0 43 4 53 39 87 32 33 45 39 80 39 23 0 55 -7 71 -15z m2112 -760 c9 -21
8 -28 -7 -45 -31 -34 -75 -20 -75 25 0 48 62 63 82 20z m-1811 -25 c21 -12 25
-50 7 -68 -18 -18 -56 -14 -68 7 -14 27 -13 37 6 55 18 19 28 20 55 6z m2271
-510 c34 -10 108 -78 108 -99 0 -5 3 -17 7 -27 4 -10 -14 3 -38 29 -43 45 -48
47 -100 47 -43 0 -63 -5 -90 -25 -41 -31 -47 -45 -48 -106 -1 -36 6 -55 29
-87 37 -51 18 -57 -35 -11 -45 40 -62 97 -45 153 18 61 40 87 95 112 57 27 66
28 117 14z m-1865 -329 c22 -82 26 -118 27 -251 1 -290 -44 -399 -340 -823
l-54 -78 -1 -202 c-1 -111 -4 -213 -8 -227 -10 -34 -25 363 -16 425 10 64 14
73 136 251 148 215 189 305 225 484 13 67 15 115 11 225 -7 151 -26 253 -76
399 -17 50 -31 92 -30 95 3 21 106 -221 126 -298z m698 -1003 c30 -14 30 -14
5 -55 l-20 -33 -190 0 -190 0 -27 -42 c-141 -222 -183 -293 -183 -308 0 -9 45
-95 100 -191 l100 -174 -31 -30 -30 -30 -18 22 c-42 51 -203 347 -208 381 -7
54 14 102 103 241 104 162 135 203 164 218 33 17 388 18 425 1z"/>
</g>
</svg>
